<svg width="36" height="44" viewBox="0 0 36 44" fill="none" xmlns="http://www.w3.org/2000/svg">
  <path d="M17.6358 0C10.528 0 4.76782 6.1793 4.76782 13.8C4.76782 16.831 5.68973 19.631 7.24149 21.9103C9.99315 19.2379 13.6315 17.5965 17.6358 17.5965C21.6402 17.5965 25.2821 19.2379 28.0372 21.9103C29.5855 19.631 30.5109 16.831 30.5109 13.8C30.5109 6.1793 24.7472 0 17.6358 0ZM22.0202 10.1C22.0202 12.4724 20.0567 14.3965 17.6358 14.3965C15.215 14.3965 13.2515 12.4724 13.2515 10.1C13.2515 7.72757 15.215 5.80344 17.6358 5.80344H22.0202V10.1Z" fill="#6AE6A4"/>
  <path d="M33.1043 13.5623C33.238 15.345 33.5265 21.9588 29.2618 27.8795C27.7769 29.9416 26.1125 31.4002 24.6487 32.414C23.2448 33.3864 22.7733 35.3416 23.6072 36.8933L27.0098 43.2071C31.9712 39.8622 35.2789 33.9554 35.2789 27.2071C35.2789 22.2588 34.4907 17.6071 33.1043 13.5588V13.5623Z" fill="#6AE6A4"/>
  <path d="M2.17458 13.5588C0.791716 17.6106 0 22.2588 0 27.2071C0 34.3209 3.67004 40.5105 9.08538 43.7381L12.5126 37.376C13.3818 35.7657 12.8364 33.7278 11.3303 32.8071C9.75746 31.845 7.94531 30.4209 6.32317 28.3174C1.63621 22.2554 2.04439 15.1692 2.17458 13.5588Z" fill="#6AE6A4"/>
</svg>
