<svg width="16" height="16" viewBox="0 0 16 16" fill="none" xmlns="http://www.w3.org/2000/svg">
<path fill-rule="evenodd" clip-rule="evenodd" d="M7.52463 1.36811C4.12448 1.36811 1.36811 4.12448 1.36811 7.52463C1.36811 10.9248 4.12448 13.6811 7.52463 13.6811C10.9248 13.6811 13.6811 10.9248 13.6811 7.52463C13.6811 4.12448 10.9248 1.36811 7.52463 1.36811ZM0 7.52463C0 3.36889 3.36889 0 7.52463 0C11.6804 0 15.0493 3.36889 15.0493 7.52463C15.0493 11.6804 11.6804 15.0493 7.52463 15.0493C3.36889 15.0493 0 11.6804 0 7.52463Z" fill="#66C1FF"/>
<path fill-rule="evenodd" clip-rule="evenodd" d="M7.5244 4.10449C7.9022 4.10449 8.20846 4.41076 8.20846 4.78855V10.261C8.20846 10.6388 7.9022 10.9451 7.5244 10.9451C7.14661 10.9451 6.84035 10.6388 6.84035 10.261V4.78855C6.84035 4.41076 7.14661 4.10449 7.5244 4.10449Z" fill="#66C1FF"/>
<path fill-rule="evenodd" clip-rule="evenodd" d="M4.10429 7.52488C4.10429 7.14708 4.41056 6.84082 4.78835 6.84082H10.2608C10.6386 6.84082 10.9449 7.14708 10.9449 7.52488C10.9449 7.90267 10.6386 8.20894 10.2608 8.20894H4.78835C4.41056 8.20894 4.10429 7.90267 4.10429 7.52488Z" fill="#66C1FF"/>
</svg>
