<svg width="30" height="26" viewBox="0 0 30 26" fill="none" xmlns="http://www.w3.org/2000/svg">
<path fill-rule="evenodd" clip-rule="evenodd" d="M13.1064 0.679579C13.5056 0.702464 13.8297 1.01054 13.8728 1.40804L15.6349 17.6451L17.1013 6.51705C17.1517 6.13392 17.4634 5.83838 17.8487 5.80833C18.234 5.77829 18.5877 6.02193 18.697 6.3926L20.7851 13.476H29.1819C29.6337 13.476 30 13.8423 30 14.2941C30 14.7459 29.6337 15.1121 29.1819 15.1121H20.1734C19.8107 15.1121 19.4913 14.8733 19.3888 14.5254L18.2191 10.5577L16.3673 24.6104C16.3132 25.0209 15.9609 25.3263 15.5469 25.3215C15.1329 25.3168 14.7877 25.0034 14.743 24.5918L12.7751 6.45778L10.4379 16.7816C10.3581 17.1342 10.0563 17.3926 9.69564 17.4172C9.33496 17.4418 9.00093 17.2267 8.87404 16.8882L7.4712 13.1458L6.82125 14.5061C6.68538 14.7904 6.39826 14.9714 6.08312 14.9714H0.818063C0.366259 14.9714 0 14.6052 0 14.1534C0 13.7016 0.366259 13.3353 0.818063 13.3353H5.56734L6.82404 10.7051C6.96547 10.4091 7.27004 10.2263 7.59778 10.2405C7.92553 10.2548 8.21304 10.4635 8.32819 10.7707L9.44607 13.7529L12.2617 1.31567C12.35 0.925707 12.7072 0.656693 13.1064 0.679579Z" fill="#1E394C"/>
</svg>
