<svg width="30" height="25" viewBox="0 0 30 25" fill="none" xmlns="http://www.w3.org/2000/svg">
<path fill-rule="evenodd" clip-rule="evenodd" d="M13.1064 0.00135618C13.5056 0.0242416 13.8297 0.33232 13.8728 0.72982L15.6349 16.9669L17.1013 5.83882C17.1517 5.4557 17.4634 5.16016 17.8487 5.13011C18.234 5.10006 18.5877 5.34371 18.697 5.71438L20.7851 12.7978H29.1819C29.6337 12.7978 30 13.1641 30 13.6159C30 14.0677 29.6337 14.4339 29.1819 14.4339H20.1734C19.8107 14.4339 19.4913 14.1951 19.3888 13.8472L18.2191 9.87944L16.3673 23.9322C16.3132 24.3427 15.9609 24.648 15.5469 24.6433C15.1329 24.6385 14.7877 24.3252 14.743 23.9135L12.7751 5.77956L10.4379 16.1034C10.3581 16.456 10.0563 16.7144 9.69564 16.739C9.33496 16.7635 9.00093 16.5484 8.87404 16.2099L7.4712 12.4675L6.82125 13.8278C6.68538 14.1122 6.39826 14.2932 6.08312 14.2932H0.818063C0.366259 14.2932 0 13.9269 0 13.4751C0 13.0233 0.366259 12.6571 0.818063 12.6571H5.56734L6.82404 10.0269C6.96547 9.73091 7.27004 9.54803 7.59778 9.56231C7.92553 9.57659 8.21304 9.78527 8.32819 10.0925L9.44607 13.0746L12.2617 0.63745C12.35 0.247484 12.7072 -0.0215293 13.1064 0.00135618Z" fill="#AAB4BC"/>
</svg>
