<svg width="18" height="18" viewBox="0 0 18 18" fill="none" xmlns="http://www.w3.org/2000/svg">
<path d="M14.8339 3.16643C13.2855 1.62153 11.1875 0.753906 9.00019 0.753906C6.8129 0.753906 4.71491 1.62153 3.16651 3.16643L1.42334 4.9096V2.4444C1.42334 2.26206 1.35091 2.08719 1.22198 1.95826C1.09304 1.82933 0.918176 1.7569 0.73584 1.7569C0.553504 1.7569 0.378635 1.82933 0.249704 1.95826C0.120773 2.08719 0.0483398 2.26206 0.0483398 2.4444V6.56895C0.0483416 6.59183 0.0494888 6.61469 0.0517773 6.63745C0.0526787 6.64671 0.0544628 6.65569 0.0557218 6.66484C0.0575471 6.67791 0.0591207 6.69101 0.0617014 6.70398C0.0638618 6.71482 0.0668619 6.72532 0.0695062 6.73598C0.0722751 6.74709 0.0747303 6.75824 0.0780449 6.76922C0.0812341 6.77974 0.0852208 6.7899 0.088892 6.8002C0.0927738 6.81108 0.0963617 6.82202 0.100788 6.83273C0.104753 6.84227 0.109433 6.8514 0.113797 6.86071C0.118958 6.87177 0.123888 6.88289 0.129679 6.89371C0.134421 6.90255 0.139834 6.91093 0.144932 6.91953C0.151268 6.93018 0.157307 6.94094 0.164255 6.95132C0.17057 6.96074 0.177599 6.96959 0.184355 6.97867C0.190985 6.98757 0.197174 6.99667 0.204287 7.00532C0.217064 7.02086 0.23066 7.03567 0.244717 7.05003C0.246435 7.05181 0.247906 7.05376 0.249668 7.05552C0.251053 7.05691 0.252585 7.05805 0.253965 7.05942C0.268715 7.07392 0.28401 7.08788 0.300018 7.10102C0.308096 7.10765 0.316614 7.11342 0.324901 7.11963C0.334574 7.12687 0.344036 7.13436 0.354106 7.14109C0.363817 7.1476 0.373912 7.15323 0.383878 7.15918C0.393173 7.16474 0.402279 7.17057 0.411846 7.1757C0.421875 7.18106 0.432197 7.1856 0.44244 7.19043C0.452552 7.19523 0.462518 7.20027 0.472904 7.20458C0.482681 7.20861 0.492646 7.21186 0.502552 7.21543C0.513819 7.2195 0.524939 7.22381 0.536478 7.22729C0.546255 7.23025 0.5562 7.2324 0.566082 7.23491C0.577915 7.23792 0.589622 7.24121 0.601686 7.2436C0.61289 7.24582 0.62422 7.2471 0.635508 7.24876C0.646422 7.25036 0.657164 7.2524 0.668238 7.25348C0.688169 7.25544 0.708206 7.25629 0.728243 7.25651C0.730802 7.25654 0.733278 7.2569 0.735838 7.2569H4.86084C5.04317 7.2569 5.21804 7.18446 5.34697 7.05553C5.47591 6.9266 5.54834 6.75173 5.54834 6.5694C5.54834 6.38706 5.47591 6.21219 5.34697 6.08326C5.21804 5.95433 5.04317 5.8819 4.86084 5.8819H2.39564L4.13885 4.13868C5.10033 3.1772 6.32534 2.52242 7.65896 2.25715C8.99258 1.99188 10.3749 2.12803 11.6311 2.64838C12.8874 3.16874 13.9611 4.04992 14.7165 5.18051C15.472 6.31109 15.8752 7.6403 15.8752 9.00005C15.8752 10.3598 15.472 11.689 14.7165 12.8196C13.9611 13.9502 12.8874 14.8314 11.6311 15.3517C10.3749 15.8721 8.99258 16.0082 7.65896 15.7429C6.32534 15.4777 5.10033 14.8229 4.13885 13.8614C4.075 13.7976 3.99921 13.7469 3.91579 13.7124C3.83238 13.6778 3.74297 13.66 3.65268 13.66C3.56239 13.66 3.47298 13.6778 3.38957 13.7124C3.30615 13.7469 3.23036 13.7976 3.16651 13.8614C3.10267 13.9253 3.05202 14.001 3.01747 14.0845C2.98292 14.1679 2.96514 14.2573 2.96514 14.3476C2.96514 14.4379 2.98292 14.5273 3.01747 14.6107C3.05202 14.6941 3.10267 14.7699 3.16651 14.8337C3.93253 15.6001 4.84203 16.2081 5.84305 16.623C6.84407 17.0378 7.917 17.2514 9.00058 17.2515C10.0842 17.2517 11.1571 17.0383 12.1583 16.6237C13.1594 16.2091 14.069 15.6014 14.8352 14.8351C15.6014 14.0689 16.2092 13.1593 16.6238 12.1582C17.0384 11.1571 17.2518 10.0841 17.2516 9.00051C17.2515 7.91693 17.0379 6.84399 16.6231 5.84297C16.2082 4.84195 15.6003 3.93245 14.8339 3.16643Z" fill="#1B1B1B"/>
</svg>
