<svg width="18" height="18" viewBox="0 0 18 18" fill="none" xmlns="http://www.w3.org/2000/svg">
<path d="M17.3646 7.24874C17.3759 7.24709 17.3872 7.2458 17.3984 7.24358C17.4105 7.2412 17.4222 7.2379 17.434 7.23489C17.4439 7.23238 17.4538 7.23023 17.4636 7.22728C17.4752 7.22379 17.4863 7.21948 17.4975 7.21541C17.5074 7.21184 17.5174 7.2086 17.5272 7.20456C17.5376 7.20025 17.5475 7.19521 17.5577 7.19042C17.5679 7.18559 17.5782 7.18104 17.5882 7.17568C17.5978 7.17055 17.6069 7.16472 17.6162 7.15917C17.6262 7.15321 17.6363 7.14758 17.646 7.14108C17.6561 7.13435 17.6655 7.12685 17.6752 7.11961C17.6835 7.1134 17.692 7.10763 17.7001 7.101C17.7161 7.08786 17.7314 7.0739 17.7461 7.0594C17.7475 7.05803 17.749 7.05689 17.7504 7.05551C17.7522 7.05374 17.7537 7.05179 17.7554 7.05001C17.7694 7.03565 17.783 7.02084 17.7958 7.0053C17.8029 6.99665 17.8091 6.98755 17.8157 6.97865C17.8225 6.96957 17.8295 6.96072 17.8358 6.9513C17.8428 6.94092 17.8488 6.93017 17.8552 6.91951C17.8603 6.91091 17.8657 6.90253 17.8704 6.8937C17.8762 6.88288 17.8811 6.87176 17.8863 6.8607C17.8907 6.85138 17.8953 6.84225 17.8993 6.83271C17.9037 6.822 17.9073 6.81106 17.9112 6.80018C17.9149 6.78988 17.9189 6.77973 17.922 6.7692C17.9254 6.75823 17.9278 6.74707 17.9306 6.73597C17.9332 6.72531 17.9362 6.71481 17.9384 6.70396C17.941 6.69099 17.9425 6.6779 17.9444 6.66482C17.9456 6.65567 17.9474 6.64669 17.9483 6.63743C17.9506 6.61467 17.9518 6.59181 17.9518 6.56894V2.44438C17.9518 2.26204 17.8793 2.08718 17.7504 1.95824C17.6215 1.82931 17.4466 1.75688 17.2643 1.75688C17.0819 1.75688 16.907 1.82931 16.7781 1.95824C16.6492 2.08718 16.5768 2.26204 16.5768 2.44438V4.90958L14.8336 3.16641C13.68 2.01394 12.2107 1.22934 10.6113 0.911792C9.01193 0.59424 7.3543 0.757992 5.84797 1.38235C4.34164 2.00671 3.05422 3.06364 2.14847 4.41954C1.24271 5.77545 0.759277 7.36945 0.759277 9.00005C0.759277 10.6307 1.24271 12.2247 2.14847 13.5806C3.05422 14.9365 4.34164 15.9934 5.84797 16.6178C7.3543 17.2421 9.01193 17.4059 10.6113 17.0883C12.2107 16.7708 13.68 15.9862 14.8336 14.8337C14.8975 14.7699 14.9482 14.6941 14.9828 14.6106C15.0174 14.5272 15.0353 14.4378 15.0353 14.3474C15.0353 14.2571 15.0175 14.1677 14.983 14.0842C14.9484 14.0007 14.8978 13.9249 14.8339 13.861C14.77 13.7972 14.6942 13.7465 14.6107 13.712C14.5273 13.6774 14.4378 13.6597 14.3475 13.6597C14.2572 13.6597 14.1677 13.6776 14.0843 13.7122C14.0009 13.7468 13.9251 13.7975 13.8612 13.8614C12.8998 14.8229 11.6748 15.4777 10.3411 15.743C9.00751 16.0082 7.62518 15.8721 6.36894 15.3517C5.1127 14.8314 4.03898 13.9502 3.28354 12.8196C2.52811 11.689 2.1249 10.3598 2.1249 9.00005C2.1249 7.64031 2.52811 6.3111 3.28354 5.18051C4.03898 4.04992 5.1127 3.16873 6.36894 2.64838C7.62518 2.12802 9.00751 1.99187 10.3411 2.25714C11.6748 2.52241 12.8998 3.17718 13.8612 4.13867L15.6045 5.88188H13.1393C12.9569 5.88188 12.7821 5.95431 12.6531 6.08324C12.5242 6.21218 12.4518 6.38704 12.4518 6.56938C12.4518 6.75172 12.5242 6.92658 12.6531 7.05552C12.7821 7.18445 12.9569 7.25688 13.1393 7.25688H17.2643C17.2668 7.25688 17.2693 7.25652 17.2719 7.2565C17.2919 7.25628 17.3119 7.25543 17.3319 7.25346C17.3429 7.25238 17.3537 7.25034 17.3646 7.24874Z" fill="#1B1B1B"/>
</svg>
