<svg width="22" height="25" viewBox="0 0 22 25" fill="none" xmlns="http://www.w3.org/2000/svg">
<path d="M18.9584 22.1635H2.27506C1.85039 22.1635 1.51672 21.8588 1.51672 21.4709V10.791C1.51672 5.98439 5.59656 2.07812 10.6167 2.07812C15.6369 2.07812 19.7167 5.98439 19.7167 10.791V21.4709C19.7167 21.8588 19.3831 22.1635 18.9584 22.1635ZM3.03339 20.7783H18.2001V10.791C18.2001 6.7601 14.8027 3.46332 10.6167 3.46332C6.43072 3.46332 3.03339 6.74625 3.03339 10.791V20.7783Z" fill="#71767C"/>
<path d="M20.475 22.1635H0.758364C0.333697 22.1635 3.05176e-05 21.8588 3.05176e-05 21.4709C3.05176e-05 21.0831 0.333697 20.7783 0.758364 20.7783H20.475C20.8997 20.7783 21.2334 21.0831 21.2334 21.4709C21.2334 21.8588 20.8997 22.1635 20.475 22.1635Z" fill="#71767C"/>
<path d="M10.6167 24.9337C8.94837 24.9337 7.58337 23.687 7.58337 22.1633C7.58337 21.7754 7.91704 21.4707 8.34171 21.4707C8.76637 21.4707 9.10004 21.7754 9.10004 22.1633C9.10004 22.9252 9.78254 23.5485 10.6167 23.5485C11.4509 23.5485 12.1334 22.9252 12.1334 22.1633C12.1334 21.7754 12.467 21.4707 12.8917 21.4707C13.3164 21.4707 13.65 21.7754 13.65 22.1633C13.65 23.687 12.285 24.9337 10.6167 24.9337Z" fill="#71767C"/>
<path d="M10.6167 2.7704C9.78257 2.7704 9.10007 2.14706 9.10007 1.3852C9.10007 0.62334 9.78257 0 10.6167 0C11.4509 0 12.1334 0.62334 12.1334 1.3852C12.1334 2.14706 11.4509 2.7704 10.6167 2.7704ZM10.6167 1.3852H11.3751H10.6167Z" fill="#71767C"/>
</svg>
