<svg width="87" height="71" viewBox="0 0 87 71" fill="none" xmlns="http://www.w3.org/2000/svg">
<path d="M87 63.0467C87 65.1319 86.1717 67.1317 84.6972 68.6062C83.2227 70.0807 81.2229 70.909 79.1377 70.909H8.37715C6.29194 70.909 4.29214 70.0807 2.81767 68.6062C1.34321 67.1317 0.514862 65.1319 0.514862 63.0467V19.8041C0.514862 17.7189 1.34321 15.7191 2.81767 14.2447C4.29214 12.7702 6.29194 11.9419 8.37715 11.9419H24.1017L31.964 0.148438H55.5509L63.4131 11.9419H79.1377C81.2229 11.9419 83.2227 12.7702 84.6972 14.2447C86.1717 15.7191 87 17.7189 87 19.8041V63.0467Z" fill="#B3B3B3"/>
<path d="M43.7574 55.1845C52.4419 55.1845 59.482 48.1444 59.482 39.4599C59.482 30.7755 52.4419 23.7354 43.7574 23.7354C35.073 23.7354 28.0329 30.7755 28.0329 39.4599C28.0329 48.1444 35.073 55.1845 43.7574 55.1845Z" stroke="#D9D9D9" stroke-width="7.86229" stroke-linecap="round" stroke-linejoin="round"/>
</svg>
