<svg width="13" height="12" viewBox="0 0 13 12" fill="none" xmlns="http://www.w3.org/2000/svg">
<g id="eva:options-fill">
<g id="evaOptionsFill0">
<g id="evaOptionsFill1">
<path id="evaOptionsFill2" d="M3.50341 7.08982V1.49982C3.50341 1.36721 3.45071 1.24003 3.35689 1.14626C3.26308 1.0525 3.13583 0.999817 3.00316 0.999817C2.87048 0.999817 2.74324 1.0525 2.64942 1.14626C2.55561 1.24003 2.5029 1.36721 2.5029 1.49982V7.08982C2.21318 7.19492 1.96286 7.38663 1.78596 7.6389C1.60906 7.89117 1.51416 8.19176 1.51416 8.49982C1.51416 8.80788 1.60906 9.10847 1.78596 9.36073C1.96286 9.613 2.21318 9.80472 2.5029 9.90982V10.4998C2.5029 10.6324 2.55561 10.7596 2.64942 10.8534C2.74324 10.9471 2.87048 10.9998 3.00316 10.9998C3.13583 10.9998 3.26308 10.9471 3.35689 10.8534C3.45071 10.7596 3.50341 10.6324 3.50341 10.4998V9.90982C3.79314 9.80472 4.04346 9.613 4.22036 9.36073C4.39726 9.10847 4.49216 8.80788 4.49216 8.49982C4.49216 8.19176 4.39726 7.89117 4.22036 7.6389C4.04346 7.38663 3.79314 7.19492 3.50341 7.08982ZM10.507 6.49982C10.5061 6.19035 10.4095 5.88872 10.2304 5.63628C10.0513 5.38385 9.7984 5.19297 9.50647 5.08982V1.49982C9.50647 1.36721 9.45377 1.24003 9.35995 1.14626C9.26614 1.0525 9.1389 0.999817 9.00622 0.999817C8.87354 0.999817 8.7463 1.0525 8.65248 1.14626C8.55867 1.24003 8.50596 1.36721 8.50596 1.49982V5.08982C8.21624 5.19492 7.96592 5.38663 7.78902 5.6389C7.61212 5.89117 7.51722 6.19176 7.51722 6.49982C7.51722 6.80788 7.61212 7.10847 7.78902 7.36073C7.96592 7.613 8.21624 7.80472 8.50596 7.90982V10.4998C8.50596 10.6324 8.55867 10.7596 8.65248 10.8534C8.7463 10.9471 8.87354 10.9998 9.00622 10.9998C9.1389 10.9998 9.26614 10.9471 9.35995 10.8534C9.45377 10.7596 9.50647 10.6324 9.50647 10.4998V7.90982C9.7984 7.80666 10.0513 7.61578 10.2304 7.36335C10.4095 7.11092 10.5061 6.80929 10.507 6.49982ZM7.50545 2.49982C7.50623 2.22464 7.43125 1.95456 7.28873 1.71912C7.14621 1.48368 6.94164 1.29196 6.6974 1.16495C6.45317 1.03794 6.17868 0.980522 5.90399 0.998987C5.62929 1.01745 5.36497 1.11109 5.13995 1.26964C4.91493 1.4282 4.73789 1.64557 4.62819 1.89796C4.5185 2.15035 4.48038 2.42804 4.51801 2.70064C4.55565 2.97323 4.66758 3.23023 4.84156 3.4435C5.01554 3.65676 5.24486 3.81809 5.50443 3.90982V10.4998C5.50443 10.6324 5.55714 10.7596 5.65095 10.8534C5.74477 10.9471 5.87201 10.9998 6.00469 10.9998C6.13736 10.9998 6.26461 10.9471 6.35842 10.8534C6.45224 10.7596 6.50494 10.6324 6.50494 10.4998V3.90982C6.79687 3.80666 7.04972 3.61578 7.22884 3.36335C7.40796 3.11092 7.50458 2.80929 7.50545 2.49982Z" fill="current"/>
</g>
</g>
</g>
</svg>
