<svg width="45" height="45" viewBox="0 0 45 45" fill="none" xmlns="http://www.w3.org/2000/svg">
<rect width="45" height="45" rx="10" fill="#5FC454"/>
<path d="M11 23C11 29.64 16.3733 35 23 35C29.6267 35 35 29.6267 35 23C35 16.3733 29.6267 11 23 11C16.3733 11 11 16.3733 11 23ZM29.72 19.8667L22.5067 27.0933C22.2533 27.3467 21.92 27.48 21.56 27.48C21.2 27.48 20.8667 27.3333 20.6133 27.0933L17.16 23.64C16.64 23.12 16.64 22.28 17.16 21.76C17.68 21.24 18.52 21.24 19.04 21.76L21.5467 24.2667L27.8133 17.9867C28.3333 17.4667 29.1867 17.4667 29.6933 17.9867C30.2133 18.5067 30.2133 19.3467 29.6933 19.8667H29.72Z" fill="white"/>
</svg>
