<svg width="18" height="18" viewBox="0 0 18 18" fill="none" xmlns="http://www.w3.org/2000/svg">
  <path d="M9.39069 0.5C4.63828 0.5 0.78125 4.308 0.78125 9C0.78125 13.692 4.63828 17.5 9.39069 17.5C14.1431 17.5 18.0001 13.692 18.0001 9C18.0001 4.308 14.1431 0.5 9.39069 0.5ZM9.39069 15.8C5.59393 15.8 2.50314 12.7485 2.50314 9C2.50314 5.2515 5.59393 2.2 9.39069 2.2C13.1875 2.2 16.2782 5.2515 16.2782 9C16.2782 12.7485 13.1875 15.8 9.39069 15.8ZM13.3424 5.243L7.6688 10.8445L5.43896 8.6515L4.22503 9.85L7.6688 13.25L14.5564 6.45L13.3424 5.243Z" fill="#39A430"/>
</svg>
