<svg width="22" height="21" viewBox="0 0 22 21" fill="none" xmlns="http://www.w3.org/2000/svg">
  <path d="M19 5.92773H3C1.89543 5.92773 1 6.82316 1 7.92773V17.9277C1 19.0323 1.89543 19.9277 3 19.9277H19C20.1046 19.9277 21 19.0323 21 17.9277V7.92773C21 6.82316 20.1046 5.92773 19 5.92773Z" stroke="#173433" stroke-width="2" stroke-linecap="round" stroke-linejoin="round"/>
  <path d="M15 19.9277V3.92773C15 3.3973 14.7893 2.88859 14.4142 2.51352C14.0391 2.13845 13.5304 1.92773 13 1.92773H9C8.46957 1.92773 7.96086 2.13845 7.58579 2.51352C7.21071 2.88859 7 3.3973 7 3.92773V19.9277" stroke="#173433" stroke-width="2" stroke-linecap="round" stroke-linejoin="round"/>
</svg>