<svg width="12" height="15" viewBox="0 0 12 15" fill="none" xmlns="http://www.w3.org/2000/svg">
<path d="M1 1V13.7186H10.6486V4.07001L7.5786 1H1Z" stroke="#808080" stroke-linecap="round" stroke-linejoin="round"/>
<path d="M7.57861 1V4.07001H10.6486" stroke="#808080" stroke-linecap="round" stroke-linejoin="round"/>
<path d="M7.88716 8.58173C7.84643 8.54062 7.79796 8.50799 7.74456 8.48573C7.69116 8.46346 7.63388 8.452 7.57603 8.452C7.51818 8.452 7.46091 8.46346 7.40751 8.48573C7.35411 8.50799 7.30564 8.54062 7.2649 8.58173L5.82318 10.029V6.70028C5.82318 6.58397 5.77702 6.47242 5.69484 6.39017C5.61265 6.30792 5.50119 6.26172 5.38497 6.26172C5.26875 6.26172 5.15729 6.30792 5.07511 6.39017C4.99293 6.47242 4.94676 6.58397 4.94676 6.70028V10.029L3.50504 8.58173C3.42253 8.49914 3.31061 8.45275 3.19391 8.45275C3.07721 8.45275 2.9653 8.49914 2.88278 8.58173C2.80026 8.66431 2.75391 8.77632 2.75391 8.89311C2.75391 9.0099 2.80026 9.12191 2.88278 9.20449L5.07384 11.3973C5.11552 11.4372 5.16466 11.4685 5.21845 11.4894C5.27091 11.5126 5.32762 11.5246 5.38497 11.5246C5.44232 11.5246 5.49904 11.5126 5.55149 11.4894C5.60528 11.4685 5.65443 11.4372 5.6961 11.3973L7.88716 9.20449C7.92824 9.16372 7.96084 9.11521 7.98309 9.06177C8.00533 9.00833 8.01679 8.951 8.01679 8.89311C8.01679 8.83521 8.00533 8.77789 7.98309 8.72445C7.96084 8.671 7.92824 8.6225 7.88716 8.58173Z" fill="#808080"/>
</svg>
