<svg width="14" height="14" viewBox="0 0 14 14" fill="none" xmlns="http://www.w3.org/2000/svg">
<path d="M6.36744 2.26465H2.19276C1.87642 2.26465 1.57304 2.39031 1.34935 2.614C1.12567 2.83769 1 3.14107 1 3.45741V11.8068C1 12.1231 1.12567 12.4265 1.34935 12.6502C1.57304 12.8739 1.87642 12.9995 2.19276 12.9995H10.5421C10.8585 12.9995 11.1618 12.8739 11.3855 12.6502C11.6092 12.4265 11.7349 12.1231 11.7349 11.8068V7.63209" stroke="#1E394C" stroke-opacity="0.5" stroke-linecap="round" stroke-linejoin="round"/>
<path d="M10.8403 1.37054C11.0776 1.13329 11.3994 1 11.7349 1C12.0704 1 12.3922 1.13329 12.6295 1.37054C12.8667 1.6078 13 1.92959 13 2.26512C13 2.60065 12.8667 2.92244 12.6295 3.15969L6.96384 8.82532L4.57831 9.42171L5.17469 7.03618L10.8403 1.37054Z" stroke="#1E394C" stroke-opacity="0.5" stroke-linecap="round" stroke-linejoin="round"/>
</svg>
