<svg width="13" height="13" viewBox="0 0 13 13" fill="none" xmlns="http://www.w3.org/2000/svg">
<path d="M5.8125 2.375H2.06944C1.78581 2.375 1.51379 2.48767 1.31323 2.68823C1.11267 2.88879 1 3.16081 1 3.44444V10.9306C1 11.2142 1.11267 11.4862 1.31323 11.6868C1.51379 11.8873 1.78581 12 2.06944 12H9.55556C9.83919 12 10.1112 11.8873 10.3118 11.6868C10.5123 11.4862 10.625 11.2142 10.625 10.9306V7.1875" stroke="white" stroke-linecap="round" stroke-linejoin="round"/>
<path d="M10.0019 1.34282C10.2214 1.12332 10.5191 1 10.8296 1C11.14 1 11.4377 1.12332 11.6572 1.34282C11.8767 1.56233 12 1.86004 12 2.17047C12 2.4809 11.8767 2.77862 11.6572 2.99812L6.41544 8.2399L4.20837 8.79167L4.76014 6.5846L10.0019 1.34282Z" stroke="white" stroke-linecap="round" stroke-linejoin="round"/>
</svg>
