<svg width="14" height="14" viewBox="0 0 14 14" fill="none" xmlns="http://www.w3.org/2000/svg">
<path d="M7.25 11.8749L6.43438 11.1436C5.4875 10.2905 4.70469 9.55454 4.08594 8.93579C3.46719 8.31704 2.975 7.76148 2.60938 7.2691C2.24375 6.7771 1.98838 6.32485 1.84325 5.91235C1.69813 5.49985 1.62538 5.07798 1.625 4.64673C1.625 3.76548 1.92031 3.02954 2.51094 2.43892C3.10156 1.84829 3.8375 1.55298 4.71875 1.55298C5.20625 1.55298 5.67031 1.6561 6.11094 1.86235C6.55156 2.0686 6.93125 2.35923 7.25 2.73423C7.56875 2.35923 7.94844 2.0686 8.38906 1.86235C8.82969 1.6561 9.29375 1.55298 9.78125 1.55298C10.6625 1.55298 11.3984 1.84829 11.9891 2.43892C12.5797 3.02954 12.875 3.76548 12.875 4.64673C12.875 5.07798 12.8022 5.49985 12.6567 5.91235C12.5112 6.32485 12.2559 6.7771 11.8906 7.2691C11.525 7.76148 11.0328 8.31704 10.4141 8.93579C9.79531 9.55454 9.0125 10.2905 8.06562 11.1436L7.25 11.8749ZM7.25 10.3561C8.15 9.54985 8.89062 8.85835 9.47187 8.2816C10.0531 7.70485 10.5125 7.20348 10.85 6.77748C11.1875 6.35073 11.4219 5.97085 11.5531 5.63785C11.6844 5.30485 11.75 4.97448 11.75 4.64673C11.75 4.08423 11.5625 3.61548 11.1875 3.24048C10.8125 2.86548 10.3438 2.67798 9.78125 2.67798C9.34062 2.67798 8.93281 2.8021 8.55781 3.05035C8.18281 3.2986 7.925 3.6151 7.78437 3.99985H6.71563C6.575 3.61548 6.31719 3.29898 5.94219 3.05035C5.56719 2.80173 5.15937 2.6776 4.71875 2.67798C4.15625 2.67798 3.6875 2.86548 3.3125 3.24048C2.9375 3.61548 2.75 4.08423 2.75 4.64673C2.75 4.97485 2.81562 5.30541 2.94687 5.63841C3.07812 5.97141 3.3125 6.3511 3.65 6.77748C3.9875 7.20385 4.44688 7.70541 5.02813 8.28216C5.60938 8.85891 6.35 9.55023 7.25 10.3561Z" fill="#EA0033"/>
</svg>
