<svg width="41" height="50" viewBox="0 0 41 50" fill="none" xmlns="http://www.w3.org/2000/svg">
<path fill-rule="evenodd" clip-rule="evenodd" d="M2.00144 1.997C3.28294 0.718342 5.02102 0 6.83333 0H25.0556C25.6597 0 26.239 0.239447 26.6662 0.665666L40.3329 14.302C40.76 14.7282 41 15.3063 41 15.9091V43.1818C41 44.9901 40.2801 46.7243 38.9986 48.003C37.7171 49.2817 35.979 50 34.1667 50H6.83333C5.02102 50 3.28293 49.2817 2.00144 48.003C0.719938 46.7243 0 44.9901 0 43.1818V6.81818C0 5.00989 0.719938 3.27566 2.00144 1.997ZM6.83333 4.54545C6.22923 4.54545 5.64987 4.7849 5.2227 5.21112C4.79553 5.63734 4.55556 6.21542 4.55556 6.81818V43.1818C4.55556 43.7846 4.79553 44.3627 5.2227 44.7889C5.64987 45.2151 6.22923 45.4545 6.83333 45.4545H34.1667C34.7708 45.4545 35.3501 45.2151 35.7773 44.7889C36.2045 44.3627 36.4444 43.7846 36.4444 43.1818V16.8505L24.1121 4.54545H6.83333Z" fill="#1E394C"/>
<path fill-rule="evenodd" clip-rule="evenodd" d="M24.9583 0C26.224 0 27.25 1.00736 27.25 2.25V13.5H38.7083C39.974 13.5 41 14.5074 41 15.75C41 16.9926 39.974 18 38.7083 18H24.9583C23.6927 18 22.6667 16.9926 22.6667 15.75V2.25C22.6667 1.00736 23.6927 0 24.9583 0Z" fill="#1E394C"/>
<path fill-rule="evenodd" clip-rule="evenodd" d="M9.33331 27.3333C9.33331 26.0447 10.3481 25 11.6 25H29.7333C30.9852 25 32 26.0447 32 27.3333C32 28.622 30.9852 29.6667 29.7333 29.6667H11.6C10.3481 29.6667 9.33331 28.622 9.33331 27.3333Z" fill="#1E394C"/>
<path fill-rule="evenodd" clip-rule="evenodd" d="M9.33331 36.3333C9.33331 35.0447 10.3481 34 11.6 34H29.7333C30.9852 34 32 35.0447 32 36.3333C32 37.622 30.9852 38.6667 29.7333 38.6667H11.6C10.3481 38.6667 9.33331 37.622 9.33331 36.3333Z" fill="#1E394C"/>
<path fill-rule="evenodd" clip-rule="evenodd" d="M9.33331 18.1667C9.33331 16.97 10.3407 16 11.5833 16H16.0833C17.326 16 18.3333 16.97 18.3333 18.1667C18.3333 19.3633 17.326 20.3333 16.0833 20.3333H11.5833C10.3407 20.3333 9.33331 19.3633 9.33331 18.1667Z" fill="#1E394C"/>
</svg>
