<svg width="40" height="48" viewBox="0 0 40 48" fill="none" xmlns="http://www.w3.org/2000/svg">
<g id="Group 1021" opacity="0.6">
<path id="Vector" d="M24.4502 1.5H6.6502C5.46998 1.5 4.33811 1.96884 3.50357 2.80337C2.66903 3.63791 2.2002 4.76979 2.2002 5.95V41.55C2.2002 42.7302 2.66903 43.8621 3.50357 44.6966C4.33811 45.5312 5.46998 46 6.6502 46H33.3502C34.5304 46 35.6623 45.5312 36.4968 44.6966C37.3314 43.8621 37.8002 42.7302 37.8002 41.55V14.85L24.4502 1.5Z" stroke="#788894" stroke-width="3" stroke-linecap="round" stroke-linejoin="round"/>
<path id="Vector_2" d="M16.501 29H29.851" stroke="#788894" stroke-width="3" stroke-linecap="round" stroke-linejoin="round"/>
<path id="Vector_3" d="M10.501 29.1091L10.8508 29.1091" stroke="#788894" stroke-width="3" stroke-linecap="round" stroke-linejoin="round"/>
<path id="Vector_4" d="M16.501 36H29.851" stroke="#788894" stroke-width="3" stroke-linecap="round" stroke-linejoin="round"/>
<path id="Vector_5" d="M10.501 36.1094L10.8508 36.1094" stroke="#788894" stroke-width="3" stroke-linecap="round" stroke-linejoin="round"/>
<path id="Vector_6" d="M16.501 17.2497L19.2093 19.958L25.1676 13.9997" stroke="#788894" stroke-width="2" stroke-linecap="round" stroke-linejoin="round"/>
</g>
</svg>
