<svg width="21" height="19" viewBox="0 0 21 19" fill="none" xmlns="http://www.w3.org/2000/svg">
<g id="Group 1022">
<g id="Vector">
<path d="M9.3125 17.6748C13.9034 17.6748 17.625 13.9531 17.625 9.36226C17.625 4.77139 13.9034 1.04976 9.3125 1.04976C4.72163 1.04976 1 4.77139 1 9.36226C1 13.9531 4.72163 17.6748 9.3125 17.6748Z" stroke="#0C1716" stroke-width="1.5" stroke-linecap="round" stroke-linejoin="round"/>
<path d="M9.3125 17.6748C13.9034 17.6748 17.625 13.9531 17.625 9.36226C17.625 4.77139 13.9034 1.04976 9.3125 1.04976C4.72163 1.04976 1 4.77139 1 9.36226C1 13.9531 4.72163 17.6748 9.3125 17.6748Z" stroke="black" stroke-opacity="0.2" stroke-width="1.5" stroke-linecap="round" stroke-linejoin="round"/>
</g>
<g id="Vector_2">
<path d="M9.3125 14.1748C11.9704 14.1748 14.125 12.0201 14.125 9.36226C14.125 6.70439 11.9704 4.54976 9.3125 4.54976C6.65463 4.54976 4.5 6.70439 4.5 9.36226C4.5 12.0201 6.65463 14.1748 9.3125 14.1748Z" stroke="#0C1716" stroke-width="1.5" stroke-linecap="round" stroke-linejoin="round"/>
<path d="M9.3125 14.1748C11.9704 14.1748 14.125 12.0201 14.125 9.36226C14.125 6.70439 11.9704 4.54976 9.3125 4.54976C6.65463 4.54976 4.5 6.70439 4.5 9.36226C4.5 12.0201 6.65463 14.1748 9.3125 14.1748Z" stroke="black" stroke-opacity="0.2" stroke-width="1.5" stroke-linecap="round" stroke-linejoin="round"/>
</g>
<g id="Vector_3">
<path d="M9.3125 10.6748C10.0374 10.6748 10.625 10.0871 10.625 9.36226C10.625 8.63739 10.0374 8.04976 9.3125 8.04976C8.58763 8.04976 8 8.63739 8 9.36226C8 10.0871 8.58763 10.6748 9.3125 10.6748Z" fill="#0C1716"/>
<path d="M9.3125 10.6748C10.0374 10.6748 10.625 10.0871 10.625 9.36226C10.625 8.63739 10.0374 8.04976 9.3125 8.04976C8.58763 8.04976 8 8.63739 8 9.36226C8 10.0871 8.58763 10.6748 9.3125 10.6748Z" fill="black" fill-opacity="0.2"/>
<path d="M9.3125 10.6748C10.0374 10.6748 10.625 10.0871 10.625 9.36226C10.625 8.63739 10.0374 8.04976 9.3125 8.04976C8.58763 8.04976 8 8.63739 8 9.36226C8 10.0871 8.58763 10.6748 9.3125 10.6748Z" stroke="#0C1716" stroke-width="1.5" stroke-linecap="round" stroke-linejoin="round"/>
<path d="M9.3125 10.6748C10.0374 10.6748 10.625 10.0871 10.625 9.36226C10.625 8.63739 10.0374 8.04976 9.3125 8.04976C8.58763 8.04976 8 8.63739 8 9.36226C8 10.0871 8.58763 10.6748 9.3125 10.6748Z" stroke="black" stroke-opacity="0.2" stroke-width="1.5" stroke-linecap="round" stroke-linejoin="round"/>
</g>
<g id="Arrow 1">
<path d="M9 8.86226C8.72386 8.86226 8.5 9.08612 8.5 9.36226C8.5 9.6384 8.72386 9.86226 9 9.86226V8.86226ZM15.25 9.86226L20.25 12.249V6.47551L15.25 8.86226V9.86226ZM9 9.86226L15.75 9.86226V8.86226L9 8.86226V9.86226Z" fill="#0C1716"/>
<path d="M9 8.86226C8.72386 8.86226 8.5 9.08612 8.5 9.36226C8.5 9.6384 8.72386 9.86226 9 9.86226V8.86226ZM15.25 9.86226L20.25 12.249V6.47551L15.25 8.86226V9.86226ZM9 9.86226L15.75 9.86226V8.86226L9 8.86226V9.86226Z" fill="black" fill-opacity="0.2"/>
</g>
</g>
</svg>
