<svg width="22" height="15" viewBox="0 0 22 15" fill="none" xmlns="http://www.w3.org/2000/svg">
<path d="M3.21429 3.21429C3.21429 1.44115 4.65543 0 6.42857 0C8.20171 0 9.64286 1.44115 9.64286 3.21429C9.64286 4.98742 8.20171 6.42857 6.42857 6.42857C4.65543 6.42857 3.21429 4.98742 3.21429 3.21429ZM9.64286 7.5H3.21429C1.44115 7.5 0 8.94115 0 10.7143V13.9286C0 14.5171 0.482897 15 1.07143 15H11.7857C12.3742 15 12.8571 14.5171 12.8571 13.9286V10.7143C12.8571 8.94115 11.416 7.5 9.64286 7.5ZM15.5206 6.42857C17.2938 6.42857 18.7349 4.98742 18.7349 3.21429C18.7349 1.44115 17.2938 0 15.5206 0C13.7475 0 12.3063 1.44115 12.3063 3.21429C12.3063 4.98742 13.7475 6.42857 15.5206 6.42857ZM18.7349 7.5H14.0644C14.7359 8.40543 15.1207 9.51459 15.1207 10.7143V13.9286C15.1207 14.3058 15.0604 14.6605 14.9396 15H20.8778C21.4663 15 21.9492 14.5171 21.9492 13.9286V10.7143C21.9492 8.94115 20.508 7.5 18.7349 7.5ZM9.64286 7.5H3.21429C1.44115 7.5 0 8.94115 0 10.7143V13.9286C0 14.5171 0.482897 15 1.07143 15H11.7857C12.3742 15 12.8571 14.5171 12.8571 13.9286V10.7143C12.8571 8.94115 11.416 7.5 9.64286 7.5Z" fill="#1E1E1E"/>
</svg>
