<svg width="16" height="16" viewBox="0 0 16 16" fill="none" xmlns="http://www.w3.org/2000/svg">
<path fill-rule="evenodd" clip-rule="evenodd" d="M0.8 9.60001C1.24183 9.60001 1.6 9.95818 1.6 10.4V13.6C1.6 13.8122 1.68429 14.0157 1.83431 14.1657C1.98434 14.3157 2.18783 14.4 2.4 14.4H13.6C13.8122 14.4 14.0157 14.3157 14.1657 14.1657C14.3157 14.0157 14.4 13.8122 14.4 13.6V10.4C14.4 9.95818 14.7582 9.60001 15.2 9.60001C15.6418 9.60001 16 9.95818 16 10.4V13.6C16 14.2365 15.7471 14.847 15.2971 15.2971C14.847 15.7471 14.2365 16 13.6 16H2.4C1.76348 16 1.15303 15.7471 0.702944 15.2971C0.252856 14.847 0 14.2365 0 13.6V10.4C0 9.95818 0.358172 9.60001 0.8 9.60001Z" fill="white"/>
<path fill-rule="evenodd" clip-rule="evenodd" d="M3.43451 5.83432C3.74693 5.5219 4.25346 5.5219 4.56588 5.83432L8.0002 9.26864L11.4345 5.83432C11.7469 5.5219 12.2535 5.5219 12.5659 5.83432C12.8783 6.14674 12.8783 6.65327 12.5659 6.96569L8.56588 10.9657C8.25346 11.2781 7.74693 11.2781 7.43451 10.9657L3.43451 6.96569C3.12209 6.65327 3.12209 6.14674 3.43451 5.83432Z" fill="white"/>
<path fill-rule="evenodd" clip-rule="evenodd" d="M8.0002 0C8.44202 0 8.8002 0.358172 8.8002 0.8V10.4C8.8002 10.8418 8.44202 11.2 8.0002 11.2C7.55837 11.2 7.2002 10.8418 7.2002 10.4V0.8C7.2002 0.358172 7.55837 0 8.0002 0Z" fill="white"/>
</svg>
