<svg width="20" height="12" viewBox="0 0 20 12" fill="none" xmlns="http://www.w3.org/2000/svg">
<path fill-rule="evenodd" clip-rule="evenodd" d="M15.7709 1.23247e-06C15.615 -0.000308483 15.4654 0.0577657 15.3548 0.161528L14.3843 1.07696C12.9968 0.530117 11.507 0.246727 10.0003 0.246251H10.0005H10.0003C5.88731 0.246406 2.09159 2.34131 0.0756408 5.72415H0.0754767C-0.0251315 5.89296 -0.0251315 6.09893 0.0753126 6.2679C1.11408 8.01372 2.64651 9.44593 4.49376 10.4101L3.81263 11.0527H3.81246C3.58285 11.2695 3.58285 11.6207 3.81246 11.8375C3.92292 11.9416 4.07244 12 4.22852 12C4.38444 12 4.53413 11.9416 4.64442 11.8375L8.30951 8.37921C8.30951 8.37906 8.30951 8.3789 8.30967 8.3789C8.31 8.37859 8.31033 8.37844 8.31049 8.37813L16.1865 0.946467H16.1866C16.2969 0.842396 16.359 0.701311 16.359 0.554034C16.359 0.406757 16.2969 0.265672 16.1866 0.161601C16.0762 0.0578389 15.9267 -0.000234808 15.7709 7.44316e-05L15.7709 1.23247e-06ZM10.0003 1.35725C11.188 1.35771 12.3643 1.55439 13.4769 1.93473L12.0706 3.26133C11.4701 2.85714 10.7469 2.63552 9.99967 2.63552C8.03721 2.63552 6.43353 4.14873 6.43353 6.00016C6.43353 6.70527 6.66823 7.38762 7.09676 7.95428L5.36325 9.59016C3.67142 8.77539 2.25387 7.53058 1.26976 5.99643C3.11634 3.12241 6.42181 1.35744 10.0003 1.35705V1.35725ZM16.662 2.39066V2.39051C16.6236 2.38694 16.5849 2.38694 16.5463 2.39051C16.3917 2.40894 16.2511 2.48451 16.1554 2.60082C15.9563 2.84303 16.0031 3.19162 16.2598 3.37951C17.2472 4.10321 18.0824 4.99275 18.7287 6.00003C16.8835 8.87374 13.5788 10.639 10.0015 10.6406C9.38375 10.6405 8.76711 10.5881 8.15952 10.4813C8.00606 10.4546 7.84767 10.4865 7.71918 10.5701C7.59067 10.6536 7.5027 10.782 7.47447 10.9268C7.41588 11.2282 7.62727 11.5175 7.94682 11.5729C8.6245 11.6905 9.31185 11.7492 10.0009 11.7492H10.0015C14.1147 11.7478 17.9099 9.65133 19.9245 6.26769C20.0252 6.09873 20.0252 5.8926 19.9245 5.72363C19.1809 4.47525 18.1802 3.37955 16.9814 2.50099C16.8895 2.43363 16.7787 2.39352 16.6627 2.38561L16.662 2.39066ZM9.9995 3.74561C10.4334 3.74561 10.8547 3.8568 11.2214 4.06278L7.94595 7.15331C7.72816 6.80733 7.60982 6.40978 7.60982 6.00032C7.60982 4.74853 8.67271 3.74561 9.9995 3.74561Z" fill="black"/>
</svg>
