<svg width="15" height="15" viewBox="0 0 15 15" fill="none" xmlns="http://www.w3.org/2000/svg">
<circle cx="7.5" cy="7.5" r="7.5" fill="#D9D9D9"/>
<path d="M6.432 5.852H8.376V10.256H9.372V11H6.432V10.256H7.428V6.596H6.432V5.852ZM7.776 3.296C8 3.296 8.18 3.364 8.316 3.5C8.452 3.636 8.52 3.816 8.52 4.04C8.52 4.264 8.452 4.444 8.316 4.58C8.18 4.716 8 4.784 7.776 4.784C7.552 4.784 7.372 4.716 7.236 4.58C7.108 4.444 7.044 4.264 7.044 4.04C7.044 3.816 7.108 3.636 7.236 3.5C7.372 3.364 7.552 3.296 7.776 3.296Z" fill="#737373"/>
</svg>
