<svg width="18" height="17" viewBox="0 0 18 17" fill="none" xmlns="http://www.w3.org/2000/svg">
  <mask id="path-1-inside-1_4061_4641" fill="white">
    <path d="M8.99998 7.87272C9.65883 7.87272 10.1979 8.41178 10.1979 9.07064C10.1979 9.72949 9.65883 10.2686 8.99998 10.2686C8.34113 10.2686 7.80206 9.72949 7.80206 9.07064C7.80206 8.41178 8.34113 7.87272 8.99998 7.87272ZM8.99998 13.2633C10.6172 13.2633 12.4739 14.036 12.5937 14.4613V15.0602H5.40623V14.4673C5.52602 14.036 7.38279 13.2633 8.99998 13.2633ZM8.99998 6.6748C7.67628 6.6748 6.60415 7.74694 6.60415 9.07064C6.60415 10.3943 7.67628 11.4665 8.99998 11.4665C10.3237 11.4665 11.3958 10.3943 11.3958 9.07064C11.3958 7.74694 10.3237 6.6748 8.99998 6.6748ZM8.99998 12.0654C7.40076 12.0654 4.20831 12.868 4.20831 14.4613V16.2581H13.7916V14.4613C13.7916 12.868 10.5992 12.0654 8.99998 12.0654Z"/>
  </mask>
  <path d="M8.99998 7.87272C9.65883 7.87272 10.1979 8.41178 10.1979 9.07064C10.1979 9.72949 9.65883 10.2686 8.99998 10.2686C8.34113 10.2686 7.80206 9.72949 7.80206 9.07064C7.80206 8.41178 8.34113 7.87272 8.99998 7.87272ZM8.99998 13.2633C10.6172 13.2633 12.4739 14.036 12.5937 14.4613V15.0602H5.40623V14.4673C5.52602 14.036 7.38279 13.2633 8.99998 13.2633ZM8.99998 6.6748C7.67628 6.6748 6.60415 7.74694 6.60415 9.07064C6.60415 10.3943 7.67628 11.4665 8.99998 11.4665C10.3237 11.4665 11.3958 10.3943 11.3958 9.07064C11.3958 7.74694 10.3237 6.6748 8.99998 6.6748ZM8.99998 12.0654C7.40076 12.0654 4.20831 12.868 4.20831 14.4613V16.2581H13.7916V14.4613C13.7916 12.868 10.5992 12.0654 8.99998 12.0654Z" fill="#788894"/>
  <path d="M12.5937 14.4613H16.5937V13.9086L16.4439 13.3767L12.5937 14.4613ZM12.5937 15.0602V19.0602H16.5937V15.0602H12.5937ZM5.40623 15.0602H1.40623V19.0602H5.40623V15.0602ZM5.40623 14.4673L1.55216 13.3967L1.40623 13.922V14.4673H5.40623ZM8.99998 6.6748V10.6748V6.6748ZM4.20831 16.2581H0.208313V20.2581H4.20831V16.2581ZM13.7916 16.2581V20.2581H17.7916V16.2581H13.7916ZM8.99998 11.8727C7.44969 11.8727 6.1979 10.6209 6.1979 9.07064H14.1979C14.1979 6.20264 11.868 3.87272 8.99998 3.87272V11.8727ZM6.1979 9.07064C6.1979 7.52035 7.44969 6.26855 8.99998 6.26855V14.2686C11.868 14.2686 14.1979 11.9386 14.1979 9.07064H6.1979ZM8.99998 6.26855C10.5503 6.26855 11.8021 7.52035 11.8021 9.07064H3.80206C3.80206 11.9386 6.13199 14.2686 8.99998 14.2686V6.26855ZM11.8021 9.07064C11.8021 10.6209 10.5503 11.8727 8.99998 11.8727V3.87272C6.13199 3.87272 3.80206 6.20264 3.80206 9.07064H11.8021ZM8.99998 17.2633C9.24207 17.2633 9.64471 17.3367 9.99838 17.4645C10.1696 17.5264 10.2012 17.5555 10.1219 17.5069C10.0872 17.4857 9.92702 17.387 9.72323 17.1943C9.61763 17.0945 9.45626 16.9281 9.28832 16.6912C9.12551 16.4616 8.89313 16.0768 8.74357 15.5458L16.4439 13.3767C16.1383 12.2918 15.4793 11.6269 15.2193 11.3811C14.8847 11.0648 14.5472 10.8359 14.2963 10.6824C13.7846 10.3694 13.2284 10.1255 12.7184 9.94113C11.7094 9.57635 10.3751 9.26335 8.99998 9.26335V17.2633ZM8.59373 14.4613V15.0602H16.5937V14.4613H8.59373ZM12.5937 11.0602H5.40623V19.0602H12.5937V11.0602ZM9.40623 15.0602V14.4673H1.40623V15.0602H9.40623ZM9.2603 15.5378C9.11409 16.0642 8.88602 16.4475 8.72388 16.6788C8.55707 16.9168 8.3962 17.0844 8.2901 17.1856C8.08547 17.3809 7.92389 17.4813 7.88776 17.5035C7.80593 17.5539 7.83504 17.5257 8.00524 17.464C8.3563 17.3366 8.75796 17.2633 8.99998 17.2633V9.26335C7.62481 9.26335 6.28949 9.57637 5.27793 9.9432C4.7668 10.1286 4.20819 10.3743 3.69399 10.6909C3.44167 10.8462 3.10274 11.0777 2.76733 11.3978C2.50316 11.6499 1.85234 12.316 1.55216 13.3967L9.2603 15.5378ZM8.99998 2.6748C5.46714 2.6748 2.60415 5.5378 2.60415 9.07064H10.6041C10.6041 9.95608 9.88542 10.6748 8.99998 10.6748V2.6748ZM2.60415 9.07064C2.60415 12.6035 5.46714 15.4665 8.99998 15.4665V7.46647C9.88542 7.46647 10.6041 8.1852 10.6041 9.07064H2.60415ZM8.99998 15.4665C12.5328 15.4665 15.3958 12.6035 15.3958 9.07064H7.39581C7.39581 8.1852 8.11454 7.46647 8.99998 7.46647V15.4665ZM15.3958 9.07064C15.3958 5.5378 12.5328 2.6748 8.99998 2.6748V10.6748C8.11454 10.6748 7.39581 9.95608 7.39581 9.07064H15.3958ZM8.99998 8.06543C7.70034 8.06543 5.99678 8.35993 4.51696 8.95275C3.77383 9.25044 2.8357 9.72179 2.01921 10.4754C1.17555 11.254 0.208313 12.5938 0.208313 14.4613H8.20831C8.20831 15.5321 7.64013 16.1741 7.44503 16.3542C7.2771 16.5092 7.23704 16.4811 7.49192 16.379C7.7096 16.2918 8.00477 16.2063 8.32719 16.1447C8.65648 16.0818 8.90039 16.0654 8.99998 16.0654V8.06543ZM0.208313 14.4613V16.2581H8.20831V14.4613H0.208313ZM4.20831 20.2581H13.7916V12.2581H4.20831V20.2581ZM17.7916 16.2581V14.4613H9.79165V16.2581H17.7916ZM17.7916 14.4613C17.7916 12.5938 16.8244 11.254 15.9807 10.4754C15.1643 9.72179 14.2261 9.25044 13.483 8.95275C12.0032 8.35993 10.2996 8.06543 8.99998 8.06543V16.0654C9.09956 16.0654 9.34348 16.0818 9.67277 16.1447C9.99519 16.2063 10.2904 16.2918 10.508 16.379C10.7629 16.4811 10.7229 16.5092 10.5549 16.3542C10.3598 16.1741 9.79165 15.5321 9.79165 14.4613H17.7916Z" fill="#788894" mask="url(#path-1-inside-1_4061_4641)"/>
  <mask id="path-3-inside-2_4061_4641" fill="white">
    <path d="M2.7 8.4668L9 2.85791L15.3 8.4668H18L9 0.466797L0 8.4668H2.7Z"/>
  </mask>
  <path d="M2.7 8.4668L9 2.85791L15.3 8.4668H18L9 0.466797L0 8.4668H2.7Z" fill="#788894"/>
  <path d="M9 2.85791L6.34019 -0.129635L9 -2.49766L11.6598 -0.129635L9 2.85791ZM2.7 8.4668L5.35981 11.4543L4.2226 12.4668H2.7V8.4668ZM15.3 8.4668V12.4668H13.7774L12.6402 11.4543L15.3 8.4668ZM9 0.466797L6.34254 -2.52284L9 -4.88502L11.6575 -2.52284L9 0.466797ZM18 8.4668L20.6575 5.47716L28.5208 12.4668H18V8.4668ZM0 8.4668V12.4668H-10.5208L-2.65746 5.47716L0 8.4668ZM11.6598 5.84545L5.35981 11.4543L0.0401917 5.47925L6.34019 -0.129635L11.6598 5.84545ZM12.6402 11.4543L6.34019 5.84545L11.6598 -0.129635L17.9598 5.47925L12.6402 11.4543ZM11.6575 -2.52284L20.6575 5.47716L15.3425 11.4564L6.34254 3.45643L11.6575 -2.52284ZM18 12.4668H15.3V4.4668H18V12.4668ZM2.7 12.4668H0V4.4668H2.7V12.4668ZM-2.65746 5.47716L6.34254 -2.52284L11.6575 3.45643L2.65746 11.4564L-2.65746 5.47716Z" fill="#788894" mask="url(#path-3-inside-2_4061_4641)"/>
</svg>
