<svg width="14" height="14" viewBox="0 0 14 14" fill="none" xmlns="http://www.w3.org/2000/svg">
<path d="M6.66935 1.6626H3.57258V2.89971H3.95968V2.15744H6.66935C6.78548 2.15744 6.8629 2.25641 6.8629 2.40487V5.12651C6.8629 5.27497 6.78548 5.37394 6.66935 5.37394H4.15323V7.1059H3.12742L2.41129 7.82342V7.1059H1.83065C1.71452 7.1059 1.6371 7.00693 1.6371 6.85847V4.13682C1.6371 3.98837 1.71452 3.8894 1.83065 3.8894H4.34677V3.39456H1.83065C1.50161 3.39456 1.25 3.71621 1.25 4.13682V6.85847C1.25 7.27909 1.50161 7.60074 1.83065 7.60074H2.02419V8.8626L3.24355 7.60074H4.54032V5.86878H6.66935C6.99839 5.86878 7.25 5.54713 7.25 5.12651V2.40487C7.25 1.98425 6.99839 1.6626 6.66935 1.6626Z" fill="#EA0033"/>
<path d="M2.82495 13.8125H4.40737L4.80297 12.5182H6.84693L7.24253 13.8125H8.82495L6.58319 6.61255H5.00078L2.82495 13.8125ZM5.79198 8.63502L6.45132 11.1429H5.13264L5.79198 8.63502Z" fill="#EA0033"/>
<path d="M8 10.2124C8.825 10.2124 9.95 10.0161 11 9.5579C12.05 10.0161 13.25 10.2124 14 10.2124V8.90336C14 8.90336 13.25 8.90336 12.425 8.64154C13.325 7.85609 14 6.6779 14 4.97609V4.32154H11.75V3.01245H10.25V4.32154H8V5.63063H12.425C12.275 6.80881 11.675 7.52881 11 7.987C10.55 7.65972 10.1 7.20154 9.8 6.61245H8.225C8.525 7.46336 8.975 8.1179 9.575 8.64154C8.825 8.90336 8.15 8.90336 8 8.90336V10.2124Z" fill="#EA0033"/>
</svg>
