<svg width="20" height="21" viewBox="0 0 20 21" fill="none" xmlns="http://www.w3.org/2000/svg">
  <path d="M4.16675 15.3621H7.70008C7.80975 15.3627 7.91847 15.3417 8.02 15.3002C8.12153 15.2588 8.21388 15.1977 8.29175 15.1204L14.0584 9.34542L16.4251 7.02876C16.5032 6.95129 16.5652 6.85912 16.6075 6.75757C16.6498 6.65602 16.6716 6.5471 16.6716 6.43709C16.6716 6.32708 16.6498 6.21816 16.6075 6.11661C16.5652 6.01506 16.5032 5.92289 16.4251 5.84542L12.8917 2.27042C12.8143 2.19232 12.7221 2.13032 12.6206 2.08801C12.519 2.04571 12.4101 2.02393 12.3001 2.02393C12.1901 2.02393 12.0812 2.04571 11.9796 2.08801C11.8781 2.13032 11.7859 2.19232 11.7084 2.27042L9.35841 4.62876L3.57508 10.4038C3.49785 10.4816 3.43674 10.574 3.39527 10.6755C3.3538 10.777 3.33278 10.8858 3.33341 10.9954V14.5288C3.33341 14.7498 3.42121 14.9617 3.57749 15.118C3.73377 15.2743 3.94573 15.3621 4.16675 15.3621ZM12.3001 4.03709L14.6584 6.39542L13.4751 7.57876L11.1167 5.22042L12.3001 4.03709ZM5.00008 11.3371L9.94175 6.39542L12.3001 8.75376L7.35842 13.6954H5.00008V11.3371ZM17.5001 17.0288H2.50008C2.27907 17.0288 2.06711 17.1166 1.91083 17.2728C1.75455 17.4291 1.66675 17.6411 1.66675 17.8621C1.66675 18.0831 1.75455 18.2951 1.91083 18.4513C2.06711 18.6076 2.27907 18.6954 2.50008 18.6954H17.5001C17.7211 18.6954 17.9331 18.6076 18.0893 18.4513C18.2456 18.2951 18.3334 18.0831 18.3334 17.8621C18.3334 17.6411 18.2456 17.4291 18.0893 17.2728C17.9331 17.1166 17.7211 17.0288 17.5001 17.0288Z" fill="#788894"/>
</svg>
