<svg width="150" height="42" viewBox="0 0 150 42" fill="none" xmlns="http://www.w3.org/2000/svg">
<path d="M75.3731 1.60142C77.1455 2.63791 78.4619 3.9387 79.3273 5.50897V0.502751H83.9034V28.5396C83.9034 31.0428 83.3748 33.2712 82.3124 35.225C81.25 37.1787 79.7316 38.7076 77.7622 39.8062C75.7877 40.9101 73.4919 41.4594 70.8748 41.4594C67.2937 41.4594 64.3087 40.6095 61.9248 38.9045C59.5357 37.2047 58.126 34.8829 57.6959 31.9445H62.1735C62.671 33.6132 63.6971 34.9555 65.2571 35.9764C66.817 36.9922 68.6878 37.5052 70.8748 37.5052C73.3624 37.5052 75.3939 36.7227 76.9693 35.1524C78.5448 33.5821 79.3325 31.3796 79.3325 28.5448V22.7872C78.4359 24.3885 77.1092 25.7256 75.3524 26.7932C73.5956 27.8608 71.5381 28.3945 69.1853 28.3945C66.8325 28.3945 64.5678 27.7934 62.5933 26.5911C60.6188 25.3887 59.0692 23.7045 57.9447 21.533C56.8149 19.3616 56.2552 16.8947 56.2552 14.1222C56.2552 11.3496 56.8201 8.85681 57.9447 6.7372C59.0692 4.61759 60.624 2.97477 62.5933 1.80354C64.5678 0.637494 66.7651 0.0518799 69.1853 0.0518799C71.6055 0.0518799 73.6007 0.570122 75.3783 1.60661L75.3731 1.60142ZM78.0835 8.76353C77.2544 7.22953 76.135 6.05312 74.7253 5.2343C73.3157 4.41548 71.7662 4.00607 70.0767 4.00607C68.3872 4.00607 66.8429 4.40511 65.454 5.20839C64.0599 6.01166 62.9509 7.17771 62.1217 8.71171C61.2925 10.2457 60.8779 12.0492 60.8779 14.117C60.8779 16.1848 61.2925 18.0452 62.1217 19.6C62.9509 21.1547 64.0599 22.3363 65.454 23.1551C66.8481 23.9739 68.3872 24.3833 70.0767 24.3833C71.7662 24.3833 73.3157 23.9739 74.7253 23.1551C76.135 22.3363 77.2544 21.1495 78.0835 19.6C78.9127 18.0452 79.3273 16.2366 79.3273 14.1688C79.3273 12.101 78.9127 10.2975 78.0835 8.76353Z" fill="#1E394C"/>
<path d="M99.4973 1.30079C100.974 0.435323 102.773 0 104.892 0V4.70564H103.7C98.6267 4.70564 96.0925 7.47823 96.0925 13.0182V27.9384H91.5682V0.502695H96.0925V4.95958C96.8906 3.3893 98.0255 2.17143 99.4973 1.30597V1.30079Z" fill="#1E394C"/>
<path d="M114.64 0.502686V27.9384H110.116V0.502686H114.64Z" fill="#1E394C"/>
<path d="M130.877 1.62734C132.649 0.575305 134.712 0.0518799 137.07 0.0518799C139.428 0.0518799 141.687 0.637494 143.662 1.80354C145.636 2.97477 147.186 4.61759 148.311 6.7372C149.435 8.85681 150 11.3185 150 14.1222C150 16.9258 149.435 19.3616 148.311 21.533C147.181 23.7045 145.631 25.3887 143.662 26.5911C141.687 27.7934 139.49 28.3945 137.07 28.3945C134.65 28.3945 132.701 27.8711 130.929 26.8191C129.156 25.7671 127.804 24.4559 126.876 22.8908V40.9671H122.352V0.502751H126.876V5.55561C127.773 3.98534 129.104 2.67419 130.882 1.62734H130.877ZM144.133 8.71171C143.304 7.17771 142.185 6.00648 140.775 5.20839C139.366 4.40511 137.816 4.00607 136.127 4.00607C134.437 4.00607 132.934 4.41548 131.525 5.2343C130.115 6.05312 128.99 7.23471 128.141 8.78944C127.296 10.3442 126.871 12.1373 126.871 14.174C126.871 16.2107 127.296 18.0556 128.141 19.6052C128.985 21.1599 130.115 22.3415 131.525 23.1603C132.934 23.9791 134.468 24.3885 136.127 24.3885C137.785 24.3885 139.366 23.9791 140.775 23.1603C142.185 22.3415 143.304 21.1547 144.133 19.6052C144.963 18.0504 145.377 16.2262 145.377 14.1222C145.377 12.0181 144.963 10.2509 144.133 8.71689V8.71171Z" fill="#1E394C"/>
<path d="M1.16086 41.4594C3.36857 41.4594 5.3638 40.0653 6.11525 37.9871L9.75331 27.9954L10.4633 28.4878C10.966 28.835 11.4791 29.1563 11.9921 29.4517C13.806 30.4986 15.7494 31.2966 17.7705 31.8149C19.6466 32.2968 21.59 32.5456 23.5489 32.5456C25.5079 32.5456 27.4513 32.302 29.3273 31.8149C29.944 31.6594 30.5556 31.4728 31.1619 31.2604L29.5864 26.933C27.7 27.586 25.6323 27.9333 23.5645 27.9333C22.7716 27.9333 21.9735 27.8814 21.1909 27.783C16.8688 27.2388 12.8576 25.1607 9.89324 21.9268C9.18325 21.1495 8.53544 20.3151 7.97056 19.4289L-3.8147e-06 41.335C0.383495 41.4231 0.766994 41.4646 1.16086 41.4646V41.4594ZM44.631 41.4594C45.0249 41.4594 45.4136 41.4179 45.7919 41.3298L33.4318 7.3694C32.7581 5.52446 31.6076 3.88682 30.1099 2.62749C29.3636 2.00041 28.5292 1.47181 27.6378 1.05203C26.7517 0.637438 25.8085 0.34204 24.8445 0.17102C24.1967 0.0570066 23.5437 0 22.8908 0C21.5848 0 20.2944 0.228026 19.0558 0.678897C17.2005 1.35261 15.5576 2.50311 14.2983 4.00601C13.6712 4.75746 13.1374 5.58665 12.7228 6.47803C12.3082 7.3694 12.0077 8.30742 11.8418 9.27135C11.4998 11.2044 11.676 13.2048 12.3497 15.0601C13.0234 16.9154 14.1739 18.5583 15.6768 19.8176C16.4283 20.4447 17.2575 20.9733 18.1488 21.393C19.035 21.8076 19.9782 22.103 20.9422 22.274C21.5848 22.3881 22.2429 22.4451 22.8959 22.4451C24.2019 22.4451 25.4923 22.217 26.7309 21.7662C26.8398 21.7299 26.9434 21.6884 27.0419 21.647C28.7676 20.9629 30.3016 19.8539 31.4884 18.4391L32.2347 17.5477L39.6766 37.9871C40.4332 40.0653 42.4233 41.4594 44.631 41.4594ZM22.8959 4.60717C23.8547 4.60717 24.8186 4.81965 25.6893 5.22906C27.2906 5.97533 28.5033 7.30203 29.1097 8.96041C29.716 10.6188 29.6383 12.4171 28.8868 14.0184C28.1405 15.6198 26.8138 16.8325 25.1555 17.4388C24.4247 17.7032 23.6629 17.8379 22.8959 17.8379C21.9372 17.8379 20.9733 17.6202 20.1026 17.216C18.5012 16.4697 17.2886 15.143 16.6822 13.4847C16.0759 11.8263 16.1588 10.028 16.9051 8.42662C17.6513 6.82525 18.978 5.61256 20.6364 5.00622C21.3671 4.74192 22.1289 4.60717 22.9011 4.60717H22.8959Z" fill="#66C1FF"/>
</svg>
