<svg width="181" height="83" viewBox="0 0 181 83" fill="none" xmlns="http://www.w3.org/2000/svg">
<path d="M163.808 26.3349C155.669 26.3349 145.463 31.0158 145.463 47.0602C145.463 60.9703 152.067 67.5499 162.582 67.5499C173.096 67.5499 181 60.563 181 45.9023C180.995 28.0964 169.637 26.33 163.803 26.33L163.808 26.3349ZM163.195 59.724C157.361 59.724 156.439 52.7371 156.439 45.8139C156.439 38.8908 158.578 34.1511 163.268 34.1511C168.337 34.1511 170.025 38.9055 170.025 47.1191C170.025 55.3326 168.028 59.724 163.195 59.724ZM29.5166 56.1177V66.284L16.4853 66.2448C7.33008 66.078 0 58.6053 0 49.4497V3.09754H10.1659V49.4693C10.1659 53.1443 13.1392 56.1226 16.8091 56.1226H29.5166V56.1177ZM107.567 29.0188L89.2808 35.7653V14.7457H79.1148V39.5188L67.5064 43.7973V22.184H57.3405V42.8896C57.3405 46.5646 54.3623 49.538 50.6875 49.538C47.0175 49.538 44.0394 46.5597 44.0394 42.8896V22.184H33.8734V42.291C33.8783 48.385 37.1803 53.9981 42.5037 56.9665C42.2044 57.1628 41.9149 57.3787 41.6303 57.5995C38.2155 60.3275 35.5955 64.1546 35.4042 68.7373C35.1049 73.7469 38.402 78.8546 42.8962 81.2245C50.2949 85.3116 60.348 82.0292 64.1946 74.5859C66.8342 69.6009 67.3445 63.9534 67.4721 58.4434V53.684L79.0805 49.4055V53.1492C79.0805 60.6415 80.1942 67.5941 92.3129 67.5941C96.3214 67.5941 100.59 66.4018 103.146 64.6109L100.315 58.149C98.7647 59.2088 96.9347 59.7878 95.0555 59.8025C91.5573 59.8025 89.2562 58.2618 89.2562 52.9775V45.6618L107.542 38.9153V66.1614H117.708V40.1125C117.708 36.4375 120.686 33.4642 124.356 33.4642C128.026 33.4642 131.004 36.4424 131.004 40.1125V66.1761H141.17V40.7111C141.17 34.6172 137.868 29.0041 132.545 26.0356C132.844 25.8394 133.129 25.6235 133.418 25.4027C136.833 22.6747 139.448 18.8476 139.644 14.2648C139.944 9.25526 136.642 4.14754 132.152 1.77768C124.749 -2.31438 114.701 0.973009 110.854 8.41624C108.229 13.3866 107.709 19.0144 107.577 24.5048L107.562 29.0286L107.567 29.0188ZM54.7646 70.3123C53.3074 72.8834 50.0398 73.7812 47.4689 72.324C44.898 70.8668 44.0001 67.599 45.4573 65.028C45.6241 64.7336 45.8204 64.4588 46.0362 64.1988C48.6268 60.4943 57.1884 57.5553 57.1884 57.5553C57.1884 57.5553 57.3552 66.6079 54.7597 70.3123H54.7646ZM129.047 18.7641C126.456 22.4686 117.895 25.4076 117.895 25.4076C117.895 25.4076 117.728 16.355 120.323 12.6506C121.78 10.0796 125.048 9.18166 127.619 10.6389C130.19 12.0961 131.088 15.3639 129.631 17.9349C129.464 18.2293 129.267 18.5041 129.052 18.7641H129.047Z" fill="url(#paint0_linear_802_3188)"/>
<defs>
<linearGradient id="paint0_linear_802_3188" x1="-1.60503e-06" y1="7.1145" x2="181.046" y2="69.1778" gradientUnits="userSpaceOnUse">
<stop stop-color="#B759F0"/>
<stop offset="1" stop-color="#DC59F1"/>
</linearGradient>
</defs>
</svg>
