<svg width="20" height="21" viewBox="0 0 20 21" fill="none" xmlns="http://www.w3.org/2000/svg">
<path d="M10 20.678C4.48928 20.678 0 16.4716 0 11.3081C0 8.62586 1.23581 6.06182 3.37957 4.27763C3.64439 4.06494 4.03531 4.08857 4.27491 4.32489C4.5145 4.58484 4.48928 4.95113 4.22446 5.17563C2.34552 6.73532 1.26103 8.96852 1.26103 11.3199C1.26103 15.8335 5.18285 19.5083 10 19.5083C14.8171 19.5083 18.739 15.8335 18.739 11.3199C18.739 8.96852 17.6545 6.73532 15.7755 5.17563C15.5107 4.96295 15.4855 4.58484 15.7251 4.33671C15.9521 4.08857 16.3556 4.06494 16.6204 4.28944C18.7768 6.07364 20 8.62586 20 11.3199C20 16.4716 15.5107 20.678 10 20.678Z" fill="#FE7777"/>
<path d="M9.91177 11.8158C9.55868 11.8158 9.28125 11.5559 9.28125 11.2251V0.590792C9.28125 0.259949 9.55868 0 9.91177 0C10.2649 0 10.5423 0.259949 10.5423 0.590792V11.2251C10.5423 11.5559 10.2649 11.8158 9.91177 11.8158Z" fill="#FE7777"/>
</svg>
