<svg width="14" height="15" viewBox="0 0 14 15" fill="none" xmlns="http://www.w3.org/2000/svg">
<path d="M6.70117 1.43945V4.50947H9.77119" stroke="#808080" stroke-linecap="round" stroke-linejoin="round"/>
<path d="M10.7761 6.83159C10.735 6.87232 10.7023 6.92079 10.6801 6.97419C10.6578 7.02759 10.6463 7.08487 10.6463 7.14272C10.6463 7.20057 10.6578 7.25784 10.6801 7.31124C10.7023 7.36464 10.735 7.41311 10.7761 7.45385L12.2233 8.89557L8.89462 8.89557C8.7783 8.89557 8.66675 8.94173 8.58451 9.02391C8.50226 9.1061 8.45605 9.21756 8.45605 9.33378C8.45605 9.45 8.50226 9.56146 8.58451 9.64364C8.66675 9.72582 8.7783 9.77199 8.89462 9.77199L12.2233 9.77199L10.7761 11.2137C10.6935 11.2962 10.6471 11.4081 10.6471 11.5248C10.6471 11.6415 10.6935 11.7535 10.7761 11.836C10.8586 11.9185 10.9707 11.9648 11.0874 11.9648C11.2042 11.9648 11.3162 11.9185 11.3988 11.836L13.5916 9.64491C13.6316 9.60323 13.6629 9.55409 13.6837 9.5003C13.7069 9.44784 13.7189 9.39113 13.7189 9.33378C13.7189 9.27643 13.7069 9.21971 13.6837 9.16726C13.6629 9.11347 13.6316 9.06432 13.5916 9.02265L11.3988 6.83159C11.3581 6.79051 11.3095 6.75791 11.2561 6.73566C11.2027 6.71342 11.1453 6.70196 11.0874 6.70196C11.0295 6.70196 10.9722 6.71342 10.9188 6.73566C10.8653 6.75791 10.8168 6.79051 10.7761 6.83159Z" fill="#808080"/>
<path d="M9.77147 8.01717V4.07001L6.70145 1H1V14.1572H9.77147V11.0872" stroke="#808080" stroke-linecap="round" stroke-linejoin="round"/>
</svg>
