<svg width="18" height="19" viewBox="0 0 18 19" fill="none" xmlns="http://www.w3.org/2000/svg">
<g clip-path="url(#clip0_63_3065)">
<path d="M16.0566 2.68726C16.2379 2.68726 16.4082 2.72241 16.5675 2.79272C16.7268 2.86304 16.8669 2.96558 16.9877 3.10034C17.1086 3.23511 17.202 3.38452 17.2679 3.54858C17.3338 3.71265 17.3695 3.89429 17.375 4.09351V13.656C17.375 13.8494 17.342 14.031 17.2761 14.2009C17.2102 14.3708 17.1141 14.5203 16.9877 14.6492C16.8614 14.7781 16.7213 14.8777 16.5675 14.948C16.4137 15.0183 16.2434 15.0564 16.0566 15.0623H1.81836C1.63708 15.0623 1.4668 15.0271 1.3075 14.9568C1.14819 14.8865 1.00812 14.7839 0.887268 14.6492C0.766418 14.5144 0.673035 14.365 0.607117 14.2009C0.541199 14.0369 0.505493 13.8552 0.5 13.656V4.09351C0.5 3.90015 0.532959 3.71851 0.598877 3.54858C0.664795 3.37866 0.760925 3.22925 0.887268 3.10034C1.01361 2.97144 1.15369 2.87183 1.3075 2.80151C1.4613 2.7312 1.63159 2.69312 1.81836 2.68726H16.0566ZM1.81836 3.81226C1.74146 3.81226 1.67828 3.83862 1.62885 3.89136C1.57941 3.94409 1.55469 4.01147 1.55469 4.09351V6.06225H16.3203V4.09351C16.3203 4.01147 16.2956 3.94409 16.2462 3.89136C16.1967 3.83862 16.1335 3.81226 16.0566 3.81226H1.81836ZM16.0566 13.9373C16.1335 13.9373 16.1967 13.9109 16.2462 13.8581C16.2956 13.8054 16.3203 13.738 16.3203 13.656V7.18725H1.55469V13.656C1.55469 13.738 1.57941 13.8054 1.62885 13.8581C1.67828 13.9109 1.74146 13.9373 1.81836 13.9373H16.0566ZM12.1016 10.5623H14.2109V11.6873H12.1016V10.5623Z" fill="#EA0033"/>
</g>
<defs>
<clipPath id="clip0_63_3065">
<rect width="16.875" height="18" fill="white" transform="translate(0.5 0.437256)"/>
</clipPath>
</defs>
</svg>
