<svg xmlns="http://www.w3.org/2000/svg" width="15" height="16" viewBox="0 0 15 16" fill="none">
  <mask id="path-1-inside-1_3587_22461" fill="white">
    <path d="M7.5 2.73724C8.53125 2.73724 9.375 3.58099 9.375 4.61224C9.375 5.64349 8.53125 6.48724 7.5 6.48724C6.46875 6.48724 5.625 5.64349 5.625 4.61224C5.625 3.58099 6.46875 2.73724 7.5 2.73724ZM7.5 11.1747C10.0312 11.1747 12.9375 12.3841 13.125 13.0497V13.9872H1.875V13.0591C2.0625 12.3841 4.96875 11.1747 7.5 11.1747ZM7.5 0.862244C5.42812 0.862244 3.75 2.54037 3.75 4.61224C3.75 6.68412 5.42812 8.36224 7.5 8.36224C9.57187 8.36224 11.25 6.68412 11.25 4.61224C11.25 2.54037 9.57187 0.862244 7.5 0.862244ZM7.5 9.29974C4.99687 9.29974 0 10.556 0 13.0497V15.8622H15V13.0497C15 10.556 10.0031 9.29974 7.5 9.29974Z"/>
  </mask>
  <path d="M7.5 2.73724C8.53125 2.73724 9.375 3.58099 9.375 4.61224C9.375 5.64349 8.53125 6.48724 7.5 6.48724C6.46875 6.48724 5.625 5.64349 5.625 4.61224C5.625 3.58099 6.46875 2.73724 7.5 2.73724ZM7.5 11.1747C10.0312 11.1747 12.9375 12.3841 13.125 13.0497V13.9872H1.875V13.0591C2.0625 12.3841 4.96875 11.1747 7.5 11.1747ZM7.5 0.862244C5.42812 0.862244 3.75 2.54037 3.75 4.61224C3.75 6.68412 5.42812 8.36224 7.5 8.36224C9.57187 8.36224 11.25 6.68412 11.25 4.61224C11.25 2.54037 9.57187 0.862244 7.5 0.862244ZM7.5 9.29974C4.99687 9.29974 0 10.556 0 13.0497V15.8622H15V13.0497C15 10.556 10.0031 9.29974 7.5 9.29974Z" fill="#788894"/>
  <path d="M13.125 13.0497H17.125V12.4971L16.9752 11.9652L13.125 13.0497ZM13.125 13.9872V17.9872H17.125V13.9872H13.125ZM1.875 13.9872H-2.125V17.9872H1.875V13.9872ZM1.875 13.0591L-1.97907 11.9885L-2.125 12.5139V13.0591H1.875ZM7.5 0.862244V4.86224V0.862244ZM0 15.8622H-4V19.8622H0V15.8622ZM15 15.8622V19.8622H19V15.8622H15ZM7.5 6.73724C6.32211 6.73724 5.375 5.79013 5.375 4.61224H13.375C13.375 1.37185 10.7404 -1.26276 7.5 -1.26276V6.73724ZM5.375 4.61224C5.375 3.43435 6.32211 2.48724 7.5 2.48724V10.4872C10.7404 10.4872 13.375 7.85263 13.375 4.61224H5.375ZM7.5 2.48724C8.67789 2.48724 9.625 3.43435 9.625 4.61224H1.625C1.625 7.85263 4.25961 10.4872 7.5 10.4872V2.48724ZM9.625 4.61224C9.625 5.79013 8.67789 6.73724 7.5 6.73724V-1.26276C4.25961 -1.26276 1.625 1.37185 1.625 4.61224H9.625ZM7.5 15.1747C8.19912 15.1747 9.09264 15.3572 9.83141 15.6243C10.1952 15.7559 10.3928 15.862 10.4357 15.8882C10.4621 15.9044 10.3521 15.8424 10.1853 15.6847C10.0981 15.6023 9.95197 15.453 9.79566 15.2325C9.64448 15.0193 9.42017 14.6502 9.27484 14.1343L16.9752 11.9652C16.6611 10.8502 15.9783 10.1522 15.6813 9.87146C15.3098 9.52019 14.9222 9.25454 14.6102 9.06371C13.9763 8.67597 13.254 8.35495 12.5514 8.10093C11.1574 7.59693 9.33213 7.17474 7.5 7.17474V15.1747ZM9.125 13.0497V13.9872H17.125V13.0497H9.125ZM13.125 9.98724H1.875V17.9872H13.125V9.98724ZM5.875 13.9872V13.0591H-2.125V13.9872H5.875ZM5.72907 14.1297C5.5871 14.6408 5.36709 15.0082 5.21658 15.2229C5.06139 15.4442 4.91572 15.5947 4.8281 15.6783C4.66043 15.8383 4.54897 15.9016 4.57393 15.8862C4.6143 15.8614 4.80951 15.7557 5.17225 15.6242C5.9084 15.3572 6.80095 15.1747 7.5 15.1747V7.17474C5.6678 7.17474 3.8416 7.59695 2.44494 8.10343C1.74127 8.3586 1.01656 8.68184 0.380167 9.07359C0.0667509 9.26652 -0.322295 9.53511 -0.694674 9.89044C-0.995807 10.1778 -1.67043 10.8774 -1.97907 11.9885L5.72907 14.1297ZM7.5 -3.13776C3.21899 -3.13776 -0.25 0.33123 -0.25 4.61224H7.75C7.75 4.74951 7.63726 4.86224 7.5 4.86224V-3.13776ZM-0.25 4.61224C-0.25 8.89326 3.21899 12.3622 7.5 12.3622V4.36224C7.63726 4.36224 7.75 4.47498 7.75 4.61224H-0.25ZM7.5 12.3622C11.781 12.3622 15.25 8.89326 15.25 4.61224H7.25C7.25 4.47498 7.36274 4.36224 7.5 4.36224V12.3622ZM15.25 4.61224C15.25 0.33123 11.781 -3.13776 7.5 -3.13776V4.86224C7.36274 4.86224 7.25 4.74951 7.25 4.61224H15.25ZM7.5 5.29974C5.74841 5.29974 3.36776 5.70766 1.32384 6.52645C0.298669 6.93713 -0.893256 7.54961 -1.89304 8.47235C-2.91999 9.42017 -4 10.9572 -4 13.0497H4C4 13.8954 3.5446 14.3403 3.53278 14.3512C3.52486 14.3585 3.5761 14.3109 3.72021 14.2273C3.86057 14.1459 4.05263 14.0513 4.29881 13.9527C5.37911 13.52 6.74847 13.2997 7.5 13.2997V5.29974ZM-4 13.0497V15.8622H4V13.0497H-4ZM0 19.8622H15V11.8622H0V19.8622ZM19 15.8622V13.0497H11V15.8622H19ZM19 13.0497C19 10.9572 17.92 9.42017 16.893 8.47235C15.8933 7.54961 14.7013 6.93713 13.6762 6.52645C11.6322 5.70766 9.25159 5.29974 7.5 5.29974V13.2997C8.25153 13.2997 9.62089 13.52 10.7012 13.9527C10.9474 14.0513 11.1394 14.1459 11.2798 14.2273C11.4239 14.3109 11.4751 14.3585 11.4672 14.3512C11.4554 14.3403 11 13.8954 11 13.0497H19Z" fill="#788894" mask="url(#path-1-inside-1_3587_22461)"/>
</svg>