<svg width="13" height="12" viewBox="0 0 13 12" fill="none" xmlns="http://www.w3.org/2000/svg">
<path d="M4.14721 7.09006V1.50006C4.14721 1.36745 4.0945 1.24028 4.00069 1.14651C3.90687 1.05274 3.77963 1.00006 3.64695 1.00006C3.51428 1.00006 3.38704 1.05274 3.29322 1.14651C3.19941 1.24028 3.1467 1.36745 3.1467 1.50006V7.09006C2.85698 7.19516 2.60666 7.38688 2.42976 7.63914C2.25286 7.89141 2.15796 8.192 2.15796 8.50006C2.15796 8.80812 2.25286 9.10871 2.42976 9.36098C2.60666 9.61325 2.85698 9.80496 3.1467 9.91006V10.5001C3.1467 10.6327 3.19941 10.7598 3.29322 10.8536C3.38704 10.9474 3.51428 11.0001 3.64695 11.0001C3.77963 11.0001 3.90687 10.9474 4.00069 10.8536C4.0945 10.7598 4.14721 10.6327 4.14721 10.5001V9.91006C4.43693 9.80496 4.68725 9.61325 4.86415 9.36098C5.04105 9.10871 5.13595 8.80812 5.13595 8.50006C5.13595 8.192 5.04105 7.89141 4.86415 7.63914C4.68725 7.38688 4.43693 7.19516 4.14721 7.09006ZM11.1508 6.50006C11.1499 6.19059 11.0533 5.88896 10.8742 5.63653C10.695 5.3841 10.4422 5.19322 10.1503 5.09006V1.50006C10.1503 1.36745 10.0976 1.24028 10.0037 1.14651C9.90993 1.05274 9.78268 1.00006 9.65001 1.00006C9.51733 1.00006 9.39009 1.05274 9.29628 1.14651C9.20246 1.24028 9.14975 1.36745 9.14975 1.50006V5.09006C8.86003 5.19516 8.60971 5.38688 8.43281 5.63914C8.25591 5.89141 8.16101 6.192 8.16101 6.50006C8.16101 6.80812 8.25591 7.10871 8.43281 7.36098C8.60971 7.61325 8.86003 7.80496 9.14975 7.91006V10.5001C9.14975 10.6327 9.20246 10.7598 9.29628 10.8536C9.39009 10.9474 9.51733 11.0001 9.65001 11.0001C9.78268 11.0001 9.90993 10.9474 10.0037 10.8536C10.0976 10.7598 10.1503 10.6327 10.1503 10.5001V7.91006C10.4422 7.8069 10.695 7.61603 10.8742 7.36359C11.0533 7.11116 11.1499 6.80953 11.1508 6.50006ZM8.14925 2.50006C8.15002 2.22489 8.07504 1.9548 7.93252 1.71936C7.79 1.48392 7.58543 1.29221 7.3412 1.1652C7.09696 1.03818 6.82248 0.980766 6.54778 0.999231C6.27308 1.0177 6.00876 1.11133 5.78375 1.26989C5.55873 1.42845 5.38168 1.64582 5.27199 1.89821C5.16229 2.1506 5.12418 2.42829 5.16181 2.70088C5.19944 2.97347 5.31137 3.23047 5.48535 3.44374C5.65933 3.65701 5.88866 3.81834 6.14823 3.91006V10.5001C6.14823 10.6327 6.20093 10.7598 6.29475 10.8536C6.38856 10.9474 6.51581 11.0001 6.64848 11.0001C6.78116 11.0001 6.9084 10.9474 7.00222 10.8536C7.09603 10.7598 7.14874 10.6327 7.14874 10.5001V3.91006C7.44066 3.80691 7.69351 3.61603 7.87264 3.36359C8.05176 3.11116 8.14838 2.80953 8.14925 2.50006Z" fill="#EA0033"/>
</svg>
