<svg width="16" height="15" viewBox="0 0 16 15" fill="none" xmlns="http://www.w3.org/2000/svg">
<path d="M4.50859 5.26279L3.63144 4.82422H2.31572L1 5.70137V10.0871H1.87715V13.5957H4.07001V11.4028" stroke="#808080" stroke-linecap="round" stroke-linejoin="round"/>
<path d="M11.5256 5.26279L12.4027 4.82422H13.7185L15.0342 5.70137V10.0871H14.157V13.5957H11.9642V11.4028" stroke="#808080" stroke-linecap="round" stroke-linejoin="round"/>
<circle cx="2.75429" cy="1.75429" r="1.25429" stroke="#808080"/>
<circle cx="1.75429" cy="1.75429" r="1.25429" transform="matrix(-1 0 0 1 15.0342 0)" stroke="#808080"/>
<path d="M12.3699 8.16662C12.349 8.11284 12.3177 8.06371 12.2778 8.02204L10.5226 6.26948C10.4817 6.22863 10.4331 6.19622 10.3796 6.17411C10.3262 6.152 10.2689 6.14062 10.211 6.14062C10.0942 6.14062 9.98213 6.18697 9.8995 6.26948C9.81687 6.35198 9.77045 6.46388 9.77045 6.58056C9.77045 6.69724 9.81687 6.80913 9.8995 6.89164L10.9087 7.89498H5.12544L6.13466 6.89164C6.17558 6.85079 6.20803 6.80229 6.23017 6.74891C6.25231 6.69554 6.26371 6.63833 6.26371 6.58056C6.26371 6.52278 6.25231 6.46558 6.23017 6.4122C6.20803 6.35883 6.17558 6.31033 6.13466 6.26948C6.09375 6.22863 6.04518 6.19622 5.99173 6.17411C5.93827 6.152 5.88098 6.14062 5.82312 6.14062C5.76526 6.14063 5.70797 6.152 5.65451 6.17411C5.60106 6.19622 5.55249 6.22863 5.51158 6.26948L3.75641 8.02204C3.71646 8.06371 3.68515 8.11284 3.66426 8.16662C3.62038 8.27329 3.62038 8.39294 3.66426 8.49961C3.68515 8.55339 3.71646 8.60253 3.75641 8.6442L5.51158 10.3968C5.55237 10.4378 5.6009 10.4704 5.65437 10.4927C5.70784 10.5149 5.76519 10.5264 5.82312 10.5264C5.88105 10.5264 5.9384 10.5149 5.99187 10.4927C6.04534 10.4704 6.09387 10.4378 6.13466 10.3968C6.17579 10.356 6.20843 10.3076 6.23071 10.2542C6.25299 10.2008 6.26446 10.1435 6.26446 10.0857C6.26446 10.0278 6.25299 9.97057 6.23071 9.91718C6.20843 9.86379 6.17579 9.81533 6.13466 9.7746L5.12544 8.77126H10.9087L9.8995 9.7746C9.85837 9.81533 9.82573 9.86379 9.80345 9.91718C9.78117 9.97057 9.76971 10.0278 9.76971 10.0857C9.76971 10.1435 9.78117 10.2008 9.80345 10.2542C9.82573 10.3076 9.85837 10.356 9.8995 10.3968C9.94029 10.4378 9.98882 10.4704 10.0423 10.4927C10.0958 10.5149 10.1531 10.5264 10.211 10.5264C10.269 10.5264 10.3263 10.5149 10.3798 10.4927C10.4333 10.4704 10.4818 10.4378 10.5226 10.3968L12.2778 8.6442C12.3177 8.60253 12.349 8.55339 12.3699 8.49961C12.4138 8.39294 12.4138 8.27329 12.3699 8.16662Z" fill="#808080"/>
</svg>
