<svg width="14" height="15" viewBox="0 0 14 15" fill="none" xmlns="http://www.w3.org/2000/svg">
<path d="M2.46875 7.03125V8.71875C2.46875 10.8399 2.46875 11.9008 3.128 12.5595C3.78669 13.2187 4.84756 13.2187 6.96875 13.2187H7.53125C9.65244 13.2187 10.7133 13.2187 11.372 12.5595M12.0312 7.03125V8.71875C12.0312 9.37687 12.0313 9.93262 12.0116 10.4062" stroke="#EA0033" stroke-width="0.84375" stroke-linecap="round"/>
<path d="M5.84376 1.96875H8.65626M5.84376 1.96875L5.47701 5.63456C5.45285 5.88193 5.48072 6.13162 5.55883 6.36757C5.63693 6.60352 5.76355 6.82052 5.93054 7.00461C6.09753 7.1887 6.30119 7.33582 6.52843 7.43649C6.75567 7.53717 7.00147 7.58918 7.25001 7.58918C7.49856 7.58918 7.74435 7.53717 7.9716 7.43649C8.19884 7.33582 8.4025 7.1887 8.56949 7.00461C8.73647 6.82052 8.86309 6.60352 8.9412 6.36757C9.01931 6.13162 9.04717 5.88193 9.02301 5.63456L8.65626 1.96875M5.84376 1.96875H4.67264C4.16189 1.96875 3.90651 1.96875 3.68714 2.02894C3.45897 2.09152 3.24651 2.20138 3.06355 2.35139C2.88059 2.5014 2.73122 2.68821 2.62514 2.89969M5.84376 1.96875L5.43595 6.04406C5.41443 6.27729 5.34553 6.50367 5.23348 6.70935C5.12143 6.91503 4.96858 7.09567 4.78429 7.24023C4.6 7.38478 4.38814 7.4902 4.16169 7.55004C3.93525 7.60987 3.69897 7.62286 3.46733 7.58821C3.23568 7.55355 3.01355 7.47199 2.81453 7.34851C2.6155 7.22502 2.44377 7.06222 2.30985 6.87006C2.17593 6.67791 2.08263 6.46044 2.03568 6.23098C1.98872 6.00151 1.98909 5.76488 2.03676 5.53556L2.07501 5.34375M8.65626 1.96875H9.82739C10.3381 1.96875 10.5935 1.96875 10.8129 2.02894C11.0411 2.09152 11.2535 2.20138 11.4365 2.35139C11.6194 2.5014 11.7688 2.68821 11.8749 2.89969C11.9767 3.10219 12.0268 3.35306 12.1269 3.85369L12.4633 5.53556C12.5109 5.76488 12.5113 6.00151 12.4643 6.23098C12.4174 6.46044 12.3241 6.67791 12.1902 6.87006C12.0563 7.06222 11.8845 7.22502 11.6855 7.34851C11.4865 7.47199 11.2643 7.55355 11.0327 7.58821C10.8011 7.62286 10.5648 7.60987 10.3383 7.55004C10.1119 7.4902 9.90003 7.38478 9.71574 7.24023C9.53145 7.09567 9.3786 6.91503 9.26654 6.70935C9.15449 6.50367 9.0856 6.27729 9.06408 6.04406L8.65626 1.96875ZM5.84376 12.9375V11.25C5.84376 10.7241 5.84376 10.4614 5.95683 10.2656C6.03088 10.1374 6.13738 10.0309 6.26564 9.95681C6.46139 9.84375 6.72408 9.84375 7.25001 9.84375C7.77595 9.84375 8.03864 9.84375 8.23439 9.95681C8.36264 10.0309 8.46915 10.1374 8.5432 10.2656C8.65626 10.4614 8.65626 10.7241 8.65626 11.25V12.9375" stroke="#EA0033" stroke-width="0.84375" stroke-linecap="round"/>
</svg>
