<svg width="20" height="19" viewBox="0 0 20 19" fill="none" xmlns="http://www.w3.org/2000/svg">
<path d="M19.8596 17.0362L13.3339 7.24757V4.99994H17.5005C17.9582 4.99994 18.3338 4.62436 18.3338 4.16662V0.833324C18.3338 0.375583 17.9582 0 17.5005 0H12.5005C12.0428 0 11.6672 0.375583 11.6672 0.833324V7.24757L8.3926 12.1536L6.89613 10.305C6.73769 10.1114 6.50295 9.99402 6.2506 9.99402C5.99826 9.99402 5.76352 10.1055 5.60507 10.2992L0.188464 16.9716C-0.016933 17.224 -0.0580124 17.5644 0.0828311 17.8578C0.223675 18.1512 0.51123 18.3331 0.833996 18.3331H19.1671C19.4723 18.3331 19.754 18.1629 19.9007 17.893C20.0474 17.623 20.0298 17.2944 19.8596 17.0362Z" fill="#AAB4BC"/>
</svg>
