<svg width="16" height="21" viewBox="0 0 16 21" fill="none" xmlns="http://www.w3.org/2000/svg">
<path d="M13.3333 1.75H11.3956C11.0311 0.735 10.0533 0 8.88889 0H7.11111C5.95556 0 4.97778 0.735 4.60444 1.75H2.66667C1.2 1.75 0 2.93125 0 4.375V18.375C0 19.8188 1.2 21 2.66667 21H13.3333C14.8 21 16 19.8188 16 18.375V4.375C16 2.93125 14.8 1.75 13.3333 1.75ZM6.22222 2.625C6.22222 2.14375 6.62222 1.75 7.11111 1.75H8.88889C9.37778 1.75 9.77778 2.14375 9.77778 2.625V3.5H6.22222V2.625ZM12.1867 10.7537L7.37778 15.4962C7.20889 15.6625 6.98667 15.75 6.74667 15.75C6.50667 15.75 6.28444 15.6537 6.11556 15.4962L3.81333 13.23C3.46667 12.8888 3.46667 12.3375 3.81333 11.9963C4.16 11.655 4.72 11.655 5.06667 11.9963L6.73778 13.6413L10.9156 9.52C11.2622 9.17875 11.8311 9.17875 12.1689 9.52C12.5156 9.86125 12.5156 10.4125 12.1689 10.7537H12.1867Z" fill="#1E394C"/>
</svg>
