<svg width="18" height="23" viewBox="0 0 18 23" fill="none" xmlns="http://www.w3.org/2000/svg">
<path d="M14.3333 2.75H12.3956C12.0311 1.735 11.0533 1 9.88889 1H8.11111C6.95556 1 5.97778 1.735 5.60444 2.75H3.66667C2.2 2.75 1 3.93125 1 5.375V19.375C1 20.8187 2.2 22 3.66667 22H14.3333C15.8 22 17 20.8187 17 19.375V5.375C17 3.93125 15.8 2.75 14.3333 2.75ZM7.22222 3.625C7.22222 3.14375 7.62222 2.75 8.11111 2.75H9.88889C10.3778 2.75 10.7778 3.14375 10.7778 3.625V4.5H7.22222V3.625Z" stroke="#788894" stroke-width="1.5" stroke-miterlimit="10"/>
<path d="M13.1867 11.7543L8.37779 16.4968C8.2089 16.6631 7.98668 16.7506 7.74668 16.7506C7.50668 16.7506 7.28446 16.6543 7.11557 16.4968L4.81334 14.2306C4.46668 13.8893 4.46668 13.3381 4.81334 12.9968C5.16001 12.6556 5.72001 12.6556 6.06668 12.9968L7.73779 14.6418L11.9156 10.5206C12.2622 10.1793 12.8311 10.1793 13.1689 10.5206C13.5156 10.8618 13.5156 11.4131 13.1689 11.7543H13.1867Z" fill="#788894"/>
</svg>
