<svg width="14" height="15" viewBox="0 0 14 15" fill="none" xmlns="http://www.w3.org/2000/svg">
<path d="M0.5 2.16382C0.5 1.34876 1.1615 0.687256 1.97656 0.687256H12.5234C13.3385 0.687256 14 1.34876 14 2.16382V12.7107C14 13.1023 13.8444 13.4779 13.5675 13.7548C13.2906 14.0317 12.915 14.1873 12.5234 14.1873H1.97656C1.58495 14.1873 1.20938 14.0317 0.932475 13.7548C0.655566 13.4779 0.5 13.1023 0.5 12.7107V2.16382ZM1.97656 1.95288C1.92062 1.95288 1.86697 1.9751 1.82741 2.01466C1.78785 2.05422 1.76562 2.10787 1.76562 2.16382V12.7107C1.76562 12.8271 1.86012 12.9216 1.97656 12.9216H12.5234C12.5794 12.9216 12.633 12.8994 12.6726 12.8598C12.7122 12.8203 12.7344 12.7666 12.7344 12.7107V2.16382C12.7344 2.10787 12.7122 2.05422 12.6726 2.01466C12.633 1.9751 12.5794 1.95288 12.5234 1.95288H1.97656ZM3.66406 4.06225C3.66406 3.89442 3.73073 3.73346 3.84941 3.61479C3.96808 3.49611 4.12904 3.42944 4.29688 3.42944H10.2031C10.371 3.42944 10.5319 3.49611 10.6506 3.61479C10.7693 3.73346 10.8359 3.89442 10.8359 4.06225C10.8359 4.23009 10.7693 4.39105 10.6506 4.50972C10.5319 4.6284 10.371 4.69507 10.2031 4.69507H7.88281V10.8123C7.88281 10.9801 7.81614 11.141 7.69747 11.2597C7.57879 11.3784 7.41783 11.4451 7.25 11.4451C7.08217 11.4451 6.92121 11.3784 6.80253 11.2597C6.68386 11.141 6.61719 10.9801 6.61719 10.8123V4.69507H4.29688C4.12904 4.69507 3.96808 4.6284 3.84941 4.50972C3.73073 4.39105 3.66406 4.23009 3.66406 4.06225Z" fill="#FF0000"/>
</svg>
