<svg width="233" height="94" viewBox="0 0 233 94" fill="none" xmlns="http://www.w3.org/2000/svg">
  <path d="M134.601 20.91L116.482 10.4667L98.3995 20.91V10.4667L116.482 0.0234375L134.601 10.4667V20.91Z" fill="#A435F0"/>
  <path d="M0 36.04H9.48384V59.0669C9.48384 65.0082 13.9121 67.9235 18.1189 67.9235C22.3258 67.9235 26.754 64.9344 26.754 58.9931V36.04H36.2379V59.6205C36.2379 65.1189 34.5035 69.3257 31.0716 72.241C27.6397 75.1563 23.3221 76.5585 18.0451 76.5585C12.805 76.5585 8.48749 75.1563 5.12939 72.241C1.7713 69.3257 0.0369016 65.2665 0.0369016 59.8788C-5.63631e-07 59.8788 0 36.04 0 36.04ZM118.161 64.6761C115.282 67.2223 112.035 68.477 108.308 68.477C101.518 68.477 96.9418 64.6023 96.4252 58.5872H127.054C127.054 58.5872 127.275 56.6314 127.275 54.8232C127.275 49.1772 125.467 44.4906 121.777 40.6528C118.161 36.815 113.474 34.933 107.754 34.933C101.739 34.933 96.7942 36.815 92.8826 40.6528C89.0448 44.4906 87.089 49.5093 87.089 55.7827V56.0779C87.089 62.2774 89.0448 67.2223 92.8826 70.8756C96.7204 74.5658 101.813 76.4478 108.012 76.4478C115.208 76.4478 120.928 73.6064 125.246 68.6984C125.209 68.7353 118.161 64.6761 118.161 64.6761ZM100.152 45.4501C102.256 43.7895 104.839 42.9407 107.754 42.9407C110.485 42.9407 112.773 43.7895 114.729 45.5239C116.611 47.1107 117.607 49.0296 117.681 51.2437H96.6466C96.9419 48.9558 98.1227 47.0369 100.152 45.4501ZM213.589 81.7987C209.752 90.8766 205.729 93.9763 199.53 93.9763H195.249V85.5627H198.718C200.858 85.5627 202.814 84.7508 204.696 80.4333L206.578 76.0788L190.341 36.04H199.973L211.486 64.8606L223.332 36.04H233L213.589 81.7987ZM73.1031 20.9102V39.6195C70.0033 36.8519 65.1691 35.1913 60.4826 35.1913C54.9103 35.1913 50.2238 37.1471 46.386 41.1325C42.6219 45.0441 40.7399 49.9152 40.7399 55.7827C40.7399 61.6501 42.6219 66.5212 46.386 70.5066C50.2238 74.4182 54.9103 76.374 60.4826 76.374C66.9035 76.374 70.9628 73.8647 73.1031 71.872V75.5253H82.5131V20.9102H73.1031ZM70.2616 64.4178C67.9737 66.7057 65.0953 67.8496 61.7372 67.8496C58.3791 67.8496 55.6115 66.6688 53.3605 64.4178C51.1832 62.1298 50.0762 59.2515 50.0762 55.7827C50.0762 52.3508 51.1832 49.4355 53.3605 47.1476C55.6484 44.8596 58.3791 43.7157 61.7372 43.7157C65.0953 43.7157 68.0106 44.8965 70.2616 47.1476C72.6234 49.4355 73.8042 52.3139 73.8042 55.7827C73.8042 59.2515 72.6234 62.1298 70.2616 64.4178ZM175.765 35.2651C168.606 35.2651 164.916 38.2172 162.369 41.0956C161.336 39.1398 158.495 35.2651 151.778 35.2651C146.132 35.2651 142.774 38.1065 141.114 40.1731V36.0769H131.777V75.5622H141.114V52.8305C141.114 47.5166 144.398 43.6788 148.789 43.6788C153.254 43.6788 155.838 47.0369 155.838 52.4615V75.5622H165.174V52.8305C165.174 47.4428 168.384 43.6788 172.997 43.6788C177.462 43.6788 180.045 47.0369 180.045 52.4615V75.5622H189.455V51.133C189.455 40.8004 183.92 35.2651 175.765 35.2651Z" fill="black"/>
</svg>
