<svg width="18" height="20" viewBox="0 0 18 20" fill="none" xmlns="http://www.w3.org/2000/svg">
<path d="M4.86786 11.0711L4.8674 11.0718C4.08893 12.2309 4.89877 13.81 6.32 13.81H11.68C13.0845 13.81 13.9148 12.2365 13.1326 11.0718L13.1321 11.0711C12.4019 9.98651 11.1179 9.25963 9.66347 9.08872C11.0475 8.78623 12.08 7.55635 12.08 6.08C12.08 4.37579 10.7042 3 9 3C7.29579 3 5.92 4.37579 5.92 6.08C5.92 7.54654 6.95185 8.78455 8.33779 9.08857C6.88279 9.25922 5.59832 9.9862 4.86786 11.0711ZM3 0.75H15C16.2523 0.75 17.25 1.75075 17.25 2.97V13.88C17.25 15.0993 16.2523 16.1 15 16.1H14.25C13.2673 16.1 12.3056 16.4846 11.6013 17.1881C11.6007 17.1886 11.6002 17.1891 11.5997 17.1897L9.8931 18.8763C9.40519 19.3579 8.60481 19.3579 8.1169 18.8763L6.41033 17.1897C6.4098 17.1891 6.40928 17.1886 6.40875 17.1881C5.70533 16.4855 4.75399 16.1 3.76 16.1H3C1.74765 16.1 0.75 15.0993 0.75 13.88V2.97C0.75 1.75075 1.74765 0.75 3 0.75Z" stroke="#788894" stroke-width="1.5"/>
</svg>
