<svg width="18" height="13" viewBox="0 0 18 13" fill="none" xmlns="http://www.w3.org/2000/svg">
<path d="M6.85714 9.52138L11.3057 6.94995L6.85714 4.37852V9.52138ZM16.7657 2.80995C16.8771 3.21281 16.9543 3.75281 17.0057 4.43852C17.0657 5.12424 17.0914 5.71567 17.0914 6.22995L17.1429 6.94995C17.1429 8.82709 17.0057 10.2071 16.7657 11.09C16.5514 11.8614 16.0543 12.3585 15.2829 12.5728C14.88 12.6842 14.1429 12.7614 13.0114 12.8128C11.8971 12.8728 10.8771 12.8985 9.93429 12.8985L8.57143 12.95C4.98 12.95 2.74286 12.8128 1.86 12.5728C1.08857 12.3585 0.591429 11.8614 0.377143 11.09C0.265714 10.6871 0.188572 10.1471 0.137143 9.46138C0.0771429 8.77567 0.0514285 8.18424 0.0514285 7.66995L0 6.94995C0 5.07281 0.137143 3.69281 0.377143 2.80995C0.591429 2.03852 1.08857 1.54138 1.86 1.32709C2.26286 1.21567 3 1.13852 4.13143 1.08709C5.24571 1.02709 6.26571 1.00138 7.20857 1.00138L8.57143 0.949951C12.1629 0.949951 14.4 1.08709 15.2829 1.32709C16.0543 1.54138 16.5514 2.03852 16.7657 2.80995Z" fill="white"/>
</svg>
